<svg width="24" height="24" viewBox="0 0 24 24" fill="none" xmlns="http://www.w3.org/2000/svg">
<path fill-rule="evenodd" clip-rule="evenodd" d="M0 12C0 5.37321 5.37321 0 12 0C18.6268 0 24 5.37321 24 12C24 18.6268 18.6268 24 12 24C5.37321 24 0 18.6268 0 12ZM17.925 16.3446C17.925 16.2321 17.8821 16.125 17.8018 16.0446L13.7518 11.9786L17.8179 7.96071C17.9839 7.79464 17.9839 7.52143 17.8179 7.35536L16.6607 6.19286C16.5804 6.1125 16.4732 6.06964 16.3607 6.06964C16.2482 6.06964 16.1411 6.1125 16.0607 6.19286L12.0054 10.1946L7.95 6.19286C7.86964 6.1125 7.7625 6.06964 7.65 6.06964C7.5375 6.06964 7.43036 6.1125 7.35 6.19286L6.19286 7.35536C6.02679 7.52143 6.02679 7.79464 6.19286 7.96071L10.2589 11.9786L6.20357 16.05C6.12321 16.125 6.08036 16.2375 6.08036 16.35C6.08036 16.4625 6.12321 16.5696 6.20357 16.65L7.36071 17.8125C7.44107 17.8929 7.55357 17.9357 7.66071 17.9357C7.76786 17.9357 7.88036 17.8982 7.96071 17.8125L12 13.7571L16.0446 17.8071C16.125 17.8875 16.2375 17.9304 16.3446 17.9304C16.4518 17.9304 16.5589 17.8929 16.6446 17.8071L17.8018 16.6446C17.8821 16.5696 17.925 16.4571 17.925 16.3446Z" fill="black" fill-opacity="0.9"/>
</svg>
