<svg width="30" height="30" viewBox="0 0 30 30" fill="none" xmlns="http://www.w3.org/2000/svg">
<rect width="30" height="30" fill="black"/>
<path fill-rule="evenodd" clip-rule="evenodd" d="M27 12C27 12.2764 26.7764 12.5 26.5 12.5C25.1216 12.5 24 13.6216 24 15C24 16.3784 25.1216 17.5 26.5 17.5C26.7764 17.5 27 17.7236 27 18V22C27 23.103 26.103 24 25 24H5.00002C3.89695 24 3 23.103 3 22V18C3 17.7236 3.22364 17.5 3.50002 17.5C4.87842 17.5 6 16.3784 6 15C6 13.6216 4.87842 12.5 3.50002 12.5C3.22364 12.5 3 12.2764 3 12V8.00002C3 6.89695 3.89695 6 5.00002 6H25C26.103 6 27 6.89695 27 8.00002V12ZM9.49997 22C9.77634 22 9.99998 21.7764 9.99998 21.5V20.5C9.99998 20.2237 9.77634 20 9.49997 20C9.22359 20 8.99995 20.2237 8.99995 20.5V21.5C8.99995 21.7764 9.22359 22 9.49997 22ZM9.99998 17.5C9.99998 17.7764 9.77634 18 9.49997 18C9.22359 18 8.99995 17.7764 8.99995 17.5V16.5C8.99995 16.2236 9.22359 16 9.49997 16C9.77634 16 9.99998 16.2236 9.99998 16.5V17.5ZM9.49997 14C9.77634 14 9.99998 13.7764 9.99998 13.5V12.5C9.99998 12.2236 9.77634 12 9.49997 12C9.22359 12 8.99995 12.2236 8.99995 12.5V13.5C8.99995 13.7764 9.22359 14 9.49997 14ZM9.99998 9.50002C9.99998 9.77639 9.77634 10 9.49997 10C9.22359 10 8.99995 9.77639 8.99995 9.50002V8.37502C8.99995 8.09864 9.22359 7.875 9.49997 7.875C9.77634 7.875 9.99998 8.09864 9.99998 8.37502V9.50002ZM14 10C12.897 10 12 11.1216 12 12.5C12 13.8784 12.897 15 14 15C15.103 15 16 13.8784 16 12.5C16 11.1216 15.1031 10 14 10ZM13.4995 20C13.4043 20 13.3081 19.9727 13.2227 19.916C12.9927 19.7627 12.9307 19.4527 13.084 19.2226L19.084 10.2226C19.2368 9.99267 19.5459 9.93066 19.7774 10.084C20.0074 10.2373 20.0694 10.5473 19.9161 10.7774L13.9161 19.7774C13.8198 19.9219 13.6612 20 13.4995 20ZM17 17.5C17 18.8784 17.897 20 19 20C20.103 20 21 18.8784 21 17.5C21 16.1216 20.103 15 19 15C17.897 15 17 16.1216 17 17.5Z" fill="black"/>
<mask id="mask0_15_1450" style="mask-type:luminance" maskUnits="userSpaceOnUse" x="3" y="6" width="24" height="18">
<path fill-rule="evenodd" clip-rule="evenodd" d="M27 12C27 12.2764 26.7764 12.5 26.5 12.5C25.1216 12.5 24 13.6216 24 15C24 16.3784 25.1216 17.5 26.5 17.5C26.7764 17.5 27 17.7236 27 18V22C27 23.103 26.103 24 25 24H5.00002C3.89695 24 3 23.103 3 22V18C3 17.7236 3.22364 17.5 3.50002 17.5C4.87842 17.5 6 16.3784 6 15C6 13.6216 4.87842 12.5 3.50002 12.5C3.22364 12.5 3 12.2764 3 12V8.00002C3 6.89695 3.89695 6 5.00002 6H25C26.103 6 27 6.89695 27 8.00002V12ZM9.49997 22C9.77634 22 9.99998 21.7764 9.99998 21.5V20.5C9.99998 20.2237 9.77634 20 9.49997 20C9.22359 20 8.99995 20.2237 8.99995 20.5V21.5C8.99995 21.7764 9.22359 22 9.49997 22ZM9.99998 17.5C9.99998 17.7764 9.77634 18 9.49997 18C9.22359 18 8.99995 17.7764 8.99995 17.5V16.5C8.99995 16.2236 9.22359 16 9.49997 16C9.77634 16 9.99998 16.2236 9.99998 16.5V17.5ZM9.49997 14C9.77634 14 9.99998 13.7764 9.99998 13.5V12.5C9.99998 12.2236 9.77634 12 9.49997 12C9.22359 12 8.99995 12.2236 8.99995 12.5V13.5C8.99995 13.7764 9.22359 14 9.49997 14ZM9.99998 9.50002C9.99998 9.77639 9.77634 10 9.49997 10C9.22359 10 8.99995 9.77639 8.99995 9.50002V8.37502C8.99995 8.09864 9.22359 7.875 9.49997 7.875C9.77634 7.875 9.99998 8.09864 9.99998 8.37502V9.50002ZM14 10C12.897 10 12 11.1216 12 12.5C12 13.8784 12.897 15 14 15C15.103 15 16 13.8784 16 12.5C16 11.1216 15.1031 10 14 10ZM13.4995 20C13.4043 20 13.3081 19.9727 13.2227 19.916C12.9927 19.7627 12.9307 19.4527 13.084 19.2226L19.084 10.2226C19.2368 9.99267 19.5459 9.93066 19.7774 10.084C20.0074 10.2373 20.0694 10.5473 19.9161 10.7774L13.9161 19.7774C13.8198 19.9219 13.6612 20 13.4995 20ZM17 17.5C17 18.8784 17.897 20 19 20C20.103 20 21 18.8784 21 17.5C21 16.1216 20.103 15 19 15C17.897 15 17 16.1216 17 17.5Z" fill="white"/>
</mask>
<g mask="url(#mask0_15_1450)">
<rect width="30" height="30" fill="#F0C414"/>
</g>
</svg>
