<svg width="20" height="26" viewBox="0 0 20 26" fill="none" xmlns="http://www.w3.org/2000/svg">
<path fill-rule="evenodd" clip-rule="evenodd" d="M10 25.1896C10.9627 25.1896 15.5469 19.4326 16.6773 17.5987C18.4149 14.7797 19.4877 13.112 19.4877 10C19.4877 4.76011 15.2399 0.512335 10 0.512335C4.76011 0.512335 0.512335 4.76011 0.512335 10C0.512335 13.1282 1.50638 14.7848 3.23819 17.5987C4.44523 19.56 9.03735 25.1896 10 25.1896ZM10 14.7439C12.62 14.7439 14.7439 12.62 14.7439 10C14.7439 7.38006 12.62 5.25617 10 5.25617C7.38006 5.25617 5.25617 7.38006 5.25617 10C5.25617 12.62 7.38006 14.7439 10 14.7439Z" fill="#001D3D"/>
<path d="M16.6773 17.5987L17.1134 17.8676L16.6773 17.5987ZM3.23819 17.5987L3.67451 17.3302L3.23819 17.5987ZM10 25.7019C10.175 25.7019 10.3326 25.6406 10.4471 25.5843C10.5704 25.5237 10.6962 25.4424 10.8198 25.3519C11.0674 25.1704 11.3494 24.9196 11.6482 24.6282C12.2481 24.0431 12.9589 23.2519 13.6673 22.4122C15.0806 20.7371 16.5284 18.8167 17.1134 17.8676L16.2412 17.3299C15.6958 18.2146 14.2863 20.0896 12.8842 21.7515C12.1849 22.5802 11.4985 23.3429 10.9328 23.8946C10.6488 24.1716 10.4059 24.3848 10.2141 24.5254C10.118 24.5958 10.0455 24.64 9.9953 24.6646C9.93641 24.6936 9.94533 24.6772 10 24.6772V25.7019ZM17.1134 17.8676C18.8465 15.056 20 13.2742 20 10H18.9754C18.9754 12.9499 17.9833 14.5035 16.2412 17.3299L17.1134 17.8676ZM20 10C20 4.47716 15.5229 0 10 0V1.02467C14.957 1.02467 18.9754 5.04307 18.9754 10H20ZM10 0C4.47716 0 0 4.47716 0 10H1.02467C1.02467 5.04307 5.04307 1.02467 10 1.02467V0ZM0 10C0 13.2842 1.06727 15.0488 2.80187 17.8673L3.67451 17.3302C1.94549 14.5208 1.02467 12.9722 1.02467 10H0ZM2.80187 17.8673C3.42654 18.8823 4.89691 20.804 6.32207 22.4634C7.03662 23.2954 7.75103 24.0747 8.35325 24.6498C8.65322 24.9363 8.93599 25.1824 9.18406 25.3602C9.3079 25.449 9.43372 25.5285 9.5568 25.5877C9.67147 25.6428 9.82752 25.7019 10 25.7019V24.6772C10.0522 24.6772 10.0595 24.6924 10.0006 24.6641C9.95005 24.6398 9.87732 24.5964 9.7811 24.5275C9.58907 24.3898 9.34571 24.1807 9.06093 23.9088C8.49366 23.367 7.8041 22.6163 7.09941 21.7958C5.68609 20.1501 4.25687 18.2764 3.67451 17.3302L2.80187 17.8673ZM10 15.2562C12.9029 15.2562 15.2562 12.9029 15.2562 10H14.2315C14.2315 12.337 12.337 14.2315 10 14.2315V15.2562ZM15.2562 10C15.2562 7.09711 12.9029 4.74384 10 4.74384V5.76851C12.337 5.76851 14.2315 7.66302 14.2315 10H15.2562ZM10 4.74384C7.09711 4.74384 4.74384 7.09711 4.74384 10H5.76851C5.76851 7.66302 7.66302 5.76851 10 5.76851V4.74384ZM4.74384 10C4.74384 12.9029 7.09711 15.2562 10 15.2562V14.2315C7.66302 14.2315 5.76851 12.337 5.76851 10H4.74384Z" fill="black"/>
</svg>
