<svg width="30" height="24" viewBox="0 0 30 24" fill="none" xmlns="http://www.w3.org/2000/svg">
<path fill-rule="evenodd" clip-rule="evenodd" d="M30 20.8333V2.5C30 1.11979 28.8802 0 27.5 0H2.5C1.11979 0 0 1.11979 0 2.5V20.8333C0 22.2135 1.11979 23.3333 2.5 23.3333H27.5C28.8802 23.3333 30 22.2135 30 20.8333ZM14.5885 19.4792C14.6302 19.2083 14.8021 19.026 15.0833 19.026C15.3542 19.026 15.5365 19.1823 15.5833 19.4792H14.5885ZM8.96354 19.0417C8.59375 19.0417 8.38021 19.3125 8.38021 19.651C8.38021 19.9896 8.59375 20.2604 8.96354 20.2604C9.30208 20.2604 9.53125 20.0052 9.53125 19.651C9.52604 19.3125 9.30208 19.0417 8.96354 19.0417ZM25.151 19.651C25.151 20.0052 24.9115 20.2604 24.5677 20.2604C24.2135 20.2604 23.9844 19.9896 23.9844 19.651C23.9844 19.3125 24.2135 19.0417 24.5677 19.0417C24.9115 19.0417 25.151 19.3125 25.151 19.651ZM20.6979 19.0417C20.3438 19.0417 20.1302 19.3125 20.1302 19.651C20.1302 19.9896 20.3438 20.2604 20.6979 20.2604C21.0521 20.2604 21.2812 20.0052 21.2812 19.651C21.2812 19.3125 21.0521 19.0417 20.6979 19.0417ZM26.2194 20.4196C26.2162 20.4131 26.2135 20.4075 26.2135 20.401C26.2065 20.3893 26.2037 20.3785 26.2013 20.3694C26.1984 20.3583 26.1961 20.3495 26.1875 20.3438C26.1854 20.3423 26.1832 20.3411 26.1811 20.34L26.1765 20.3379C26.1727 20.3362 26.1688 20.3349 26.1647 20.3334L26.1646 20.3333C26.155 20.3299 26.1441 20.326 26.1302 20.3177C26.1146 20.3021 26.099 20.3021 26.0729 20.3021C26.0573 20.3021 26.0417 20.3021 26.0156 20.3177C26.0097 20.3216 26.0046 20.3241 25.9996 20.3264C25.9914 20.3303 25.9837 20.334 25.974 20.3438L25.9678 20.3524C25.9583 20.3655 25.9479 20.3798 25.9479 20.401C25.9323 20.4167 25.9323 20.4323 25.9323 20.4583C25.9323 20.474 25.9323 20.4896 25.9479 20.5156C25.9479 20.5312 25.9583 20.5417 25.974 20.5573C25.979 20.5607 25.9836 20.5646 25.9879 20.5684C25.9969 20.5762 26.0051 20.5833 26.0156 20.5833C26.0469 20.599 26.0573 20.599 26.0729 20.599C26.1042 20.599 26.1146 20.599 26.1302 20.5833C26.1615 20.5833 26.1719 20.5729 26.1875 20.5573C26.1914 20.5514 26.1939 20.5463 26.1962 20.5413C26.2001 20.5331 26.2038 20.5254 26.2135 20.5156C26.2135 20.4973 26.2189 20.4862 26.2233 20.4769C26.2265 20.4704 26.2292 20.4648 26.2292 20.4583C26.2292 20.44 26.2238 20.4289 26.2194 20.4196ZM26.099 20.474C26.1136 20.474 26.12 20.469 26.1256 20.4647C26.13 20.4613 26.1338 20.4583 26.1406 20.4583C26.1562 20.4427 26.1562 20.4323 26.1562 20.4167C26.1562 20.401 26.1562 20.3906 26.1406 20.375C26.1371 20.375 26.1338 20.3742 26.1305 20.373L26.1267 20.3714L26.122 20.3692C26.1128 20.3647 26.1016 20.3594 26.0833 20.3594H26V20.5417H26.0417V20.4688H26.0573L26.1146 20.5417H26.1562L26.099 20.474ZM3.33333 9.77083C3.33333 13.7552 6.56771 16.9844 10.5469 16.9844C11.9635 16.9844 13.3542 16.5573 14.5312 15.7812C10.7344 12.6927 10.7604 6.86458 14.5312 3.77604C13.3542 2.99479 11.9635 2.57292 10.5469 2.57292C6.56771 2.56771 3.33333 5.80208 3.33333 9.77083ZM15 15.4375C18.6719 12.5729 18.6562 6.98958 15 4.10938C11.3438 6.98958 11.3281 12.5781 15 15.4375ZM7.58854 19.4115C7.58854 18.9583 7.29167 18.6615 6.82292 18.6458C6.58333 18.6458 6.32812 18.7188 6.15625 18.9844C6.03125 18.7708 5.81771 18.6458 5.52083 18.6458C5.32292 18.6458 5.125 18.7188 4.96875 18.9271V18.6979H4.54167V20.6094H4.96875C4.96875 20.4489 4.96529 20.299 4.96209 20.1604C4.94568 19.4488 4.93616 19.0365 5.4375 19.0365C5.88786 19.0365 5.88157 19.4182 5.86922 20.1691C5.867 20.304 5.86458 20.4508 5.86458 20.6094H6.27604C6.27604 20.4551 6.27263 20.3095 6.26945 20.1739C6.25299 19.4718 6.24279 19.0365 6.74479 19.0365C7.19499 19.0365 7.18887 19.4105 7.17652 20.1649L7.17652 20.165C7.1743 20.3008 7.17188 20.4489 7.17188 20.6094H7.59896V19.4115H7.58854ZM9.51562 18.6979H9.92708V20.6146H9.51562V20.375C9.375 20.5573 9.17708 20.6562 8.90625 20.6562C8.36979 20.6562 7.95833 20.2344 7.95833 19.651C7.95833 19.0729 8.36979 18.6458 8.90625 18.6458C9.17708 18.6458 9.375 18.7552 9.51562 18.9271V18.6979ZM12.0365 20.0312C12.0365 19.5671 11.6154 19.5037 11.2737 19.4523C11.0402 19.4171 10.8438 19.3876 10.8438 19.2396C10.8438 18.9427 11.4635 18.9896 11.8073 19.1823L11.9792 18.8438C11.4896 18.526 10.4062 18.5312 10.4062 19.2708C10.4062 19.713 10.8266 19.7825 11.1682 19.839C11.402 19.8777 11.599 19.9103 11.599 20.0521C11.599 20.3802 10.8958 20.3542 10.5208 20.0938L10.3385 20.4219C10.9219 20.8177 12.0365 20.7344 12.0365 20.0312ZM13.7656 20.1615L13.8802 20.5156C13.6042 20.6979 12.7031 20.8646 12.7031 19.9479V19.0781H12.3073V18.6979H12.7031V18.1146H13.1302V18.6979H13.8125V19.0833H13.1302V19.9479C13.1302 20.3906 13.5677 20.2708 13.7656 20.1615ZM14.5729 19.8177H16.0052C16.0052 18.974 15.6198 18.6406 15.099 18.6406C14.5469 18.6406 14.151 19.0521 14.151 19.6458C14.151 20.7135 15.3281 20.8906 15.9115 20.3854L15.7135 20.0729C15.3073 20.4062 14.6927 20.375 14.5729 19.8177ZM16.8594 18.9271C17.0469 18.6042 17.4115 18.5938 17.651 18.6979L17.526 19.0938C17.3542 19.0052 16.8594 18.9271 16.8594 19.5312V20.6094H16.4323V18.6979H16.8594V18.9271ZM18.2031 19.651C18.2031 19.0573 18.8073 18.8646 19.2812 19.2135L19.4792 18.875C18.875 18.401 17.776 18.6615 17.776 19.6562C17.776 20.6875 18.9427 20.8958 19.4792 20.4375L19.2812 20.099C18.8021 20.4375 18.2031 20.2344 18.2031 19.651ZM21.25 18.6979H21.6771V20.6146H21.25V20.375C20.8594 20.9375 19.6927 20.651 19.6927 19.651C19.6927 18.6771 20.8177 18.3542 21.25 18.9271V18.6979ZM23.4323 18.6979C23.3073 18.6354 22.8594 18.5469 22.6406 18.9271V18.6979H22.2292V20.6094H22.6406V19.5312C22.6406 18.9583 23.1094 18.9948 23.3073 19.0938L23.4323 18.6979ZM25.1198 17.9219H25.5312V20.6146H25.1198V20.375C24.7344 20.9323 23.5625 20.6615 23.5625 19.651C23.5625 18.6615 24.6927 18.3594 25.1198 18.9271V17.9219ZM25.9271 14.0104V14.25H25.9688V14.0104H26.0677V13.9688H25.8281V14.0104H25.9271ZM26.2552 20.375C26.2708 20.401 26.2708 20.4323 26.2708 20.4583C26.2708 20.474 26.2708 20.5 26.2552 20.5312C26.2474 20.5391 26.2409 20.5495 26.2344 20.5599C26.2279 20.5703 26.2214 20.5807 26.2135 20.5885C26.2057 20.5964 26.1953 20.6029 26.1849 20.6094C26.1745 20.6159 26.1641 20.6224 26.1562 20.6302C26.1302 20.6458 26.099 20.6458 26.0729 20.6458C26.0573 20.6458 26.026 20.6458 26 20.6302C25.9688 20.6146 25.9583 20.6042 25.9427 20.5885C25.9167 20.5729 25.901 20.5469 25.901 20.5312C25.8854 20.5 25.8854 20.474 25.8854 20.4583C25.8854 20.4323 25.8854 20.401 25.901 20.375C25.901 20.3594 25.9167 20.3333 25.9427 20.3177C25.9583 20.3021 25.974 20.2917 26 20.276C26.0183 20.276 26.0348 20.2707 26.0485 20.2662C26.0582 20.2631 26.0664 20.2604 26.0729 20.2604C26.0859 20.2604 26.1003 20.2643 26.1146 20.2682C26.1289 20.2721 26.1432 20.276 26.1562 20.276C26.1641 20.2838 26.1745 20.2904 26.1849 20.2969L26.1849 20.2969C26.1953 20.3034 26.2057 20.3099 26.2135 20.3177C26.2213 20.3255 26.2278 20.3359 26.2344 20.3463L26.2344 20.3464C26.2409 20.3568 26.2474 20.3672 26.2552 20.375ZM26.4375 13.9635H26.3646L26.2812 14.1458L26.1979 13.9635H26.125V14.2448H26.1667V14.0312L26.25 14.2135H26.3073L26.3802 14.0312V14.2448H26.4375V13.9635ZM19.4531 2.56771C23.4323 2.56771 26.6667 5.80208 26.6667 9.77083C26.6667 13.7552 23.4323 16.9844 19.4531 16.9792C18.0469 16.9792 16.6458 16.5573 15.4688 15.776C19.2812 12.7031 19.224 6.85938 15.4688 3.77083C16.6458 2.99479 18.0365 2.56771 19.4531 2.56771Z" fill="black"/>
</svg>
