<svg width="19" height="25" viewBox="0 0 19 25" fill="none" xmlns="http://www.w3.org/2000/svg">
<path fill-rule="evenodd" clip-rule="evenodd" d="M9.44747 25C10.4061 25 14.9709 19.1677 16.0965 17.3099C17.8267 14.454 18.8949 12.7645 18.8949 9.61178C18.8949 4.30334 14.6652 0 9.44747 0C4.22978 0 0 4.30334 0 9.61178C0 12.7809 0.989833 14.4592 2.7143 17.3099C3.91623 19.2968 8.48889 25 9.44747 25ZM9.44746 14.4177C12.0563 14.4177 14.1712 12.266 14.1712 9.6118C14.1712 6.95758 12.0563 4.80591 9.44746 4.80591C6.83861 4.80591 4.72373 6.95758 4.72373 9.6118C4.72373 12.266 6.83861 14.4177 9.44746 14.4177Z" fill="#001D3D"/>
</svg>
