<svg width="19" height="25" viewBox="0 0 19 25" fill="none" xmlns="http://www.w3.org/2000/svg">
<path fill-rule="evenodd" clip-rule="evenodd" d="M9.50001 24.7093C10.4639 24.7093 15.0541 18.9448 16.186 17.1086C17.9258 14.2859 19 12.6161 19 9.50001C19 4.2533 14.7467 0 9.50001 0C4.2533 0 0 4.2533 0 9.50001C0 12.6323 0.995337 14.291 2.7294 17.1086C3.93801 19.0724 8.5361 24.7093 9.50001 24.7093ZM9.50002 14.25C12.1234 14.25 14.25 12.1234 14.25 9.50002C14.25 6.87667 12.1234 4.75002 9.50002 4.75002C6.87667 4.75002 4.75002 6.87667 4.75002 9.50002C4.75002 12.1234 6.87667 14.25 9.50002 14.25Z" fill="black" fill-opacity="0.9"/>
</svg>
