<svg width="24" height="24" viewBox="0 0 24 24" fill="none" xmlns="http://www.w3.org/2000/svg">
<path fill-rule="evenodd" clip-rule="evenodd" d="M12 24C18.6274 24 24 18.6274 24 12C24 5.37256 18.6274 0 12 0C5.37256 0 0 5.37256 0 12C0 18.6274 5.37256 24 12 24ZM18.7803 9.30212L10.1553 17.784C9.86242 18.072 9.38758 18.072 9.09466 17.7839L4.21966 12.9898C3.92678 12.7018 3.92678 12.2348 4.21966 11.9468L5.2803 10.9038C5.57322 10.6158 6.04811 10.6158 6.34098 10.9038L9.625 14.1333L16.659 7.21605C16.9519 6.92798 17.4268 6.92798 17.7197 7.21605L18.7803 8.25908C19.0732 8.5471 19.0732 9.01411 18.7803 9.30212Z" fill="#4252FF"/>
</svg>
