<svg width="30" height="30" viewBox="0 0 30 30" fill="none" xmlns="http://www.w3.org/2000/svg">
<rect width="30" height="30" fill="black"/>
<path fill-rule="evenodd" clip-rule="evenodd" d="M24.4062 6.875H19.375V6.12031C19.375 4.9493 18.4257 4 17.2547 4H12.8703C11.6993 4 10.75 4.9493 10.75 6.12031V6.875H5.71875C5.3218 6.875 5 7.1968 5 7.59375C5 7.9907 5.3218 8.3125 5.71875 8.3125H7.04844L8.05469 24.5562C8.09228 25.89 9.16467 26.9624 10.4984 27H19.6266C20.9743 26.9813 22.0679 25.9036 22.1063 24.5562L23.0766 8.3125H24.4062C24.8032 8.3125 25.125 7.9907 25.125 7.59375C25.125 7.1968 24.8032 6.875 24.4062 6.875ZM12.1875 6.12031C12.1875 5.74321 12.4932 5.4375 12.8703 5.4375H17.2547C17.4358 5.4375 17.6095 5.50944 17.7375 5.63749C17.8656 5.76554 17.9375 5.93922 17.9375 6.12031V6.875H12.1875V6.12031ZM12.1875 24.125H12.2234C12.4141 24.1157 12.5933 24.0309 12.7214 23.8893C12.8495 23.7477 12.916 23.561 12.9062 23.3703L12.1875 10.4328C12.1677 10.0359 11.8298 9.73015 11.4328 9.75C11.0359 9.76985 10.7302 10.1077 10.75 10.5047L11.4688 23.4422C11.4879 23.825 11.8042 24.1255 12.1875 24.125ZM15.7812 23.4062C15.7812 23.8032 15.4595 24.125 15.0625 24.125C14.6655 24.125 14.3438 23.8032 14.3438 23.4062V10.4688C14.3438 10.0718 14.6655 9.75 15.0625 9.75C15.4595 9.75 15.7812 10.0718 15.7812 10.4688V23.4062ZM17.9375 24.125C18.3208 24.1255 18.6371 23.825 18.6562 23.4422L19.375 10.5047C19.3948 10.1077 19.0891 9.76985 18.6922 9.75C18.2952 9.73015 17.9573 10.0359 17.9375 10.4328L17.2188 23.3703C17.209 23.561 17.2755 23.7477 17.4036 23.8893C17.5317 24.0309 17.7109 24.1157 17.9016 24.125H17.9375Z" fill="#202020"/>
<mask id="mask0_15_1435" style="mask-type:luminance" maskUnits="userSpaceOnUse" x="5" y="4" width="21" height="23">
<path fill-rule="evenodd" clip-rule="evenodd" d="M24.4062 6.875H19.375V6.12031C19.375 4.9493 18.4257 4 17.2547 4H12.8703C11.6993 4 10.75 4.9493 10.75 6.12031V6.875H5.71875C5.3218 6.875 5 7.1968 5 7.59375C5 7.9907 5.3218 8.3125 5.71875 8.3125H7.04844L8.05469 24.5562C8.09228 25.89 9.16467 26.9624 10.4984 27H19.6266C20.9743 26.9813 22.0679 25.9036 22.1063 24.5562L23.0766 8.3125H24.4062C24.8032 8.3125 25.125 7.9907 25.125 7.59375C25.125 7.1968 24.8032 6.875 24.4062 6.875ZM12.1875 6.12031C12.1875 5.74321 12.4932 5.4375 12.8703 5.4375H17.2547C17.4358 5.4375 17.6095 5.50944 17.7375 5.63749C17.8656 5.76554 17.9375 5.93922 17.9375 6.12031V6.875H12.1875V6.12031ZM12.1875 24.125H12.2234C12.4141 24.1157 12.5933 24.0309 12.7214 23.8893C12.8495 23.7477 12.916 23.561 12.9062 23.3703L12.1875 10.4328C12.1677 10.0359 11.8298 9.73015 11.4328 9.75C11.0359 9.76985 10.7302 10.1077 10.75 10.5047L11.4688 23.4422C11.4879 23.825 11.8042 24.1255 12.1875 24.125ZM15.7812 23.4062C15.7812 23.8032 15.4595 24.125 15.0625 24.125C14.6655 24.125 14.3438 23.8032 14.3438 23.4062V10.4688C14.3438 10.0718 14.6655 9.75 15.0625 9.75C15.4595 9.75 15.7812 10.0718 15.7812 10.4688V23.4062ZM17.9375 24.125C18.3208 24.1255 18.6371 23.825 18.6562 23.4422L19.375 10.5047C19.3948 10.1077 19.0891 9.76985 18.6922 9.75C18.2952 9.73015 17.9573 10.0359 17.9375 10.4328L17.2188 23.3703C17.209 23.561 17.2755 23.7477 17.4036 23.8893C17.5317 24.0309 17.7109 24.1157 17.9016 24.125H17.9375Z" fill="white"/>
</mask>
<g mask="url(#mask0_15_1435)">
<rect width="30" height="30" fill="white"/>
</g>
</svg>
