<svg width="24" height="24" viewBox="0 0 24 24" fill="none" xmlns="http://www.w3.org/2000/svg">
<path fill-rule="evenodd" clip-rule="evenodd" d="M0 12C0 5.3728 5.3728 0 12 0C18.6272 0 24 5.3728 24 12C24 18.6272 18.6272 24 12 24C5.3728 24 0 18.6272 0 12ZM12.8 12.8H18.4C18.8416 12.8 19.2 12.4416 19.2 12C19.2 11.5584 18.8416 11.2 18.4 11.2H12.8V5.6C12.8 5.1584 12.4416 4.8 12 4.8C11.5584 4.8 11.2 5.1584 11.2 5.6V11.2H5.6C5.1584 11.2 4.8 11.5584 4.8 12C4.8 12.4416 5.1584 12.8 5.6 12.8H11.2V18.4C11.2 18.8416 11.5584 19.2 12 19.2C12.4416 19.2 12.8 18.8416 12.8 18.4V12.8Z" fill="white"/>
</svg>
