<svg width="20" height="20" viewBox="0 0 20 20" fill="none" xmlns="http://www.w3.org/2000/svg">
<rect width="20" height="20" fill="black"/>
<path fill-rule="evenodd" clip-rule="evenodd" d="M14.3346 13.1825L17.0944 15.9422C17.4129 16.26 17.4129 16.7766 17.0944 17.0944C16.7766 17.4129 16.2608 17.4129 15.9422 17.0944L13.1825 14.3346C12.0784 15.1926 10.6916 15.7035 9.18505 15.7035C5.58525 15.7035 2.66663 12.7849 2.66663 9.18505C2.66663 5.58525 5.58525 2.66663 9.18505 2.66663C12.7849 2.66663 15.7035 5.58525 15.7035 9.18505C15.7035 10.6916 15.1926 12.0784 14.3346 13.1825ZM4.29623 9.18505C4.29623 11.8853 6.48479 14.0739 9.18505 14.0739C11.8853 14.0739 14.0739 11.8853 14.0739 9.18505C14.0739 6.48479 11.8853 4.29623 9.18505 4.29623C6.48479 4.29623 4.29623 6.48479 4.29623 9.18505Z" fill="black"/>
<mask id="mask0_15_1946" style="mask-type:luminance" maskUnits="userSpaceOnUse" x="2" y="2" width="16" height="16">
<path fill-rule="evenodd" clip-rule="evenodd" d="M14.3346 13.1825L17.0944 15.9422C17.4129 16.26 17.4129 16.7766 17.0944 17.0944C16.7766 17.4129 16.2608 17.4129 15.9422 17.0944L13.1825 14.3346C12.0784 15.1926 10.6916 15.7035 9.18505 15.7035C5.58525 15.7035 2.66663 12.7849 2.66663 9.18505C2.66663 5.58525 5.58525 2.66663 9.18505 2.66663C12.7849 2.66663 15.7035 5.58525 15.7035 9.18505C15.7035 10.6916 15.1926 12.0784 14.3346 13.1825ZM4.29623 9.18505C4.29623 11.8853 6.48479 14.0739 9.18505 14.0739C11.8853 14.0739 14.0739 11.8853 14.0739 9.18505C14.0739 6.48479 11.8853 4.29623 9.18505 4.29623C6.48479 4.29623 4.29623 6.48479 4.29623 9.18505Z" fill="white"/>
</mask>
<g mask="url(#mask0_15_1946)">
<rect width="20" height="20" fill="white"/>
</g>
</svg>
