<svg width="291" height="284" viewBox="0 0 291 284" fill="none" xmlns="http://www.w3.org/2000/svg">
<path fill-rule="evenodd" clip-rule="evenodd" d="M260.087 31.5253C261.27 31.5253 261.272 29.6931 260.087 29.6931C258.903 29.6931 258.902 31.5253 260.087 31.5253Z" fill="#F2F8FD"/>
<path fill-rule="evenodd" clip-rule="evenodd" d="M268.052 54.7336C269.236 54.7336 269.238 52.9014 268.052 52.9014C266.869 52.9014 266.867 54.7336 268.052 54.7336Z" fill="#F2F8FD"/>
<path fill-rule="evenodd" clip-rule="evenodd" d="M279.695 80.9956C280.878 80.9956 280.88 79.1633 279.695 79.1633C278.512 79.1633 278.51 80.9956 279.695 80.9956Z" fill="#F2F8FD"/>
<path fill-rule="evenodd" clip-rule="evenodd" d="M250.895 66.9484C252.078 66.9484 252.08 65.1162 250.895 65.1162C249.712 65.1162 249.71 66.9484 250.895 66.9484Z" fill="#F2F8FD"/>
<path fill-rule="evenodd" clip-rule="evenodd" d="M289.499 32.7468C290.682 32.7468 290.684 30.9146 289.499 30.9146C288.316 30.9146 288.314 32.7468 289.499 32.7468Z" fill="#F2F8FD"/>
<path fill-rule="evenodd" clip-rule="evenodd" d="M287.661 18.089C288.844 18.089 288.846 16.2567 287.661 16.2567C286.478 16.2567 286.476 18.089 287.661 18.089Z" fill="#F2F8FD"/>
<path fill-rule="evenodd" clip-rule="evenodd" d="M189.887 29.9569C191.07 29.9569 191.072 28.1247 189.887 28.1247C188.704 28.1247 188.702 29.9569 189.887 29.9569Z" fill="#F2F8FD"/>
<path fill-rule="evenodd" clip-rule="evenodd" d="M214.945 26.9499C216.128 26.9499 216.13 25.1177 214.945 25.1177C213.762 25.1177 213.76 26.9499 214.945 26.9499Z" fill="#F2F8FD"/>
<path fill-rule="evenodd" clip-rule="evenodd" d="M230.982 39.9801C232.165 39.9801 232.167 38.1479 230.982 38.1479C229.799 38.1479 229.797 39.9801 230.982 39.9801Z" fill="#F2F8FD"/>
<path fill-rule="evenodd" clip-rule="evenodd" d="M245.014 3.89658C246.198 3.89658 246.199 2.06435 245.014 2.06435C243.831 2.06435 243.829 3.89658 245.014 3.89658Z" fill="#F2F8FD"/>
<path fill-rule="evenodd" clip-rule="evenodd" d="M272.955 139.627C274.138 139.627 274.14 137.795 272.955 137.795C271.771 137.795 271.769 139.627 272.955 139.627Z" fill="#F2F8FD"/>
<path fill-rule="evenodd" clip-rule="evenodd" d="M270.504 110.922C271.687 110.922 271.689 109.09 270.504 109.09C269.32 109.09 269.318 110.922 270.504 110.922Z" fill="#F2F8FD"/>
<path fill-rule="evenodd" clip-rule="evenodd" d="M237.414 131.687C238.598 131.687 238.599 129.855 237.414 129.855C236.231 129.855 236.229 131.687 237.414 131.687Z" fill="#F2F8FD"/>
<path fill-rule="evenodd" clip-rule="evenodd" d="M249.67 93.8211C250.853 93.8211 250.855 91.9889 249.67 91.9889C248.486 91.9889 248.484 93.8211 249.67 93.8211Z" fill="#F2F8FD"/>
<path fill-rule="evenodd" clip-rule="evenodd" d="M287.661 116.419C288.844 116.419 288.846 114.587 287.661 114.587C286.478 114.587 286.476 116.419 287.661 116.419Z" fill="#F2F8FD"/>
<path fill-rule="evenodd" clip-rule="evenodd" d="M276.631 199.48C277.814 199.48 277.816 197.647 276.631 197.647C275.448 197.647 275.446 199.48 276.631 199.48Z" fill="#F2F8FD"/>
<path fill-rule="evenodd" clip-rule="evenodd" d="M229.448 211.084C230.632 211.084 230.634 209.252 229.448 209.252C228.265 209.252 228.263 211.084 229.448 211.084Z" fill="#F2F8FD"/>
<path fill-rule="evenodd" clip-rule="evenodd" d="M277.857 166.499C279.04 166.499 279.042 164.667 277.857 164.667C276.674 164.667 276.672 166.499 277.857 166.499Z" fill="#F2F8FD"/>
<path fill-rule="evenodd" clip-rule="evenodd" d="M263.15 183.6C264.334 183.6 264.335 181.768 263.15 181.768C261.967 181.768 261.965 183.6 263.15 183.6Z" fill="#F2F8FD"/>
<path fill-rule="evenodd" clip-rule="evenodd" d="M264.376 218.413C265.559 218.413 265.561 216.58 264.376 216.58C263.193 216.58 263.191 218.413 264.376 218.413Z" fill="#F2F8FD"/>
<path fill-rule="evenodd" clip-rule="evenodd" d="M250.895 203.755C252.078 203.755 252.08 201.923 250.895 201.923C249.712 201.923 249.71 203.755 250.895 203.755Z" fill="#F2F8FD"/>
<path fill-rule="evenodd" clip-rule="evenodd" d="M218.419 203.755C219.602 203.755 219.604 201.923 218.419 201.923C217.235 201.923 217.234 203.755 218.419 203.755Z" fill="#F2F8FD"/>
<path fill-rule="evenodd" clip-rule="evenodd" d="M245.38 117.029C246.563 117.029 246.565 115.197 245.38 115.197C244.197 115.197 244.195 117.029 245.38 117.029Z" fill="#F2F8FD"/>
<path fill-rule="evenodd" clip-rule="evenodd" d="M185.878 4.8989C187.061 4.8989 187.063 3.06667 185.878 3.06667C184.694 3.06667 184.692 4.8989 185.878 4.8989Z" fill="#F2F8FD"/>
<path fill-rule="evenodd" clip-rule="evenodd" d="M84.8364 24.8072C86.019 24.8072 86.0215 22.9749 84.8364 22.9749C83.6538 22.9749 83.6513 24.8072 84.8364 24.8072Z" fill="#F2F8FD"/>
<path fill-rule="evenodd" clip-rule="evenodd" d="M98.9299 37.0221C100.113 37.0221 100.115 35.1898 98.9299 35.1898C97.7473 35.1898 97.7449 37.0221 98.9299 37.0221Z" fill="#F2F8FD"/>
<path fill-rule="evenodd" clip-rule="evenodd" d="M118.538 16.2567C119.721 16.2567 119.723 14.4245 118.538 14.4245C117.356 14.4245 117.353 16.2567 118.538 16.2567Z" fill="#F2F8FD"/>
<path fill-rule="evenodd" clip-rule="evenodd" d="M127.73 28.777C128.912 28.777 128.915 26.9448 127.73 26.9448C126.547 26.9448 126.545 28.777 127.73 28.777Z" fill="#F2F8FD"/>
<path fill-rule="evenodd" clip-rule="evenodd" d="M32.1388 29.0823C33.3214 29.0823 33.3239 27.2501 32.1388 27.2501C30.9562 27.2501 30.9537 29.0823 32.1388 29.0823Z" fill="#F2F8FD"/>
<path fill-rule="evenodd" clip-rule="evenodd" d="M46.8451 49.8477C48.0277 49.8477 48.0302 48.0154 46.8451 48.0154C45.6625 48.0154 45.66 49.8477 46.8451 49.8477Z" fill="#F2F8FD"/>
<path fill-rule="evenodd" clip-rule="evenodd" d="M57.8748 38.8542C59.0575 38.8542 59.0599 37.022 57.8748 37.022C56.6922 37.022 56.6897 38.8542 57.8748 38.8542Z" fill="#F2F8FD"/>
<path fill-rule="evenodd" clip-rule="evenodd" d="M65.5989 2.89426C66.7815 2.89426 66.784 1.06203 65.5989 1.06203C64.4163 1.06203 64.4138 2.89426 65.5989 2.89426Z" fill="#F2F8FD"/>
<path fill-rule="evenodd" clip-rule="evenodd" d="M77.4833 46.1832C78.6659 46.1832 78.6683 44.3509 77.4833 44.3509C76.3006 44.3509 76.2982 46.1832 77.4833 46.1832Z" fill="#F2F8FD"/>
<path fill-rule="evenodd" clip-rule="evenodd" d="M30.9133 87.7137C32.0959 87.7137 32.0983 85.8815 30.9133 85.8815C29.7306 85.8815 29.7282 87.7137 30.9133 87.7137Z" fill="#F2F8FD"/>
<path fill-rule="evenodd" clip-rule="evenodd" d="M56.6493 117.64C57.8319 117.64 57.8344 115.808 56.6493 115.808C55.4666 115.808 55.4642 117.64 56.6493 117.64Z" fill="#F2F8FD"/>
<path fill-rule="evenodd" clip-rule="evenodd" d="M59.1003 80.9956C60.283 80.9956 60.2854 79.1633 59.1003 79.1633C57.9177 79.1633 57.9152 80.9956 59.1003 80.9956Z" fill="#F2F8FD"/>
<path fill-rule="evenodd" clip-rule="evenodd" d="M75.0322 115.197C76.2149 115.197 76.2173 113.365 75.0322 113.365C73.8496 113.365 73.8471 115.197 75.0322 115.197Z" fill="#F2F8FD"/>
<path fill-rule="evenodd" clip-rule="evenodd" d="M23.5601 140.848C24.7428 140.848 24.7452 139.016 23.5601 139.016C22.3775 139.016 22.375 140.848 23.5601 140.848Z" fill="#F2F8FD"/>
<path fill-rule="evenodd" clip-rule="evenodd" d="M2.72619 181.157C3.90883 181.157 3.91128 179.325 2.72619 179.325C1.54356 179.325 1.54111 181.157 2.72619 181.157Z" fill="#F2F8FD"/>
<path fill-rule="evenodd" clip-rule="evenodd" d="M26.0112 205.587C27.1938 205.587 27.1962 203.755 26.0112 203.755C24.8285 203.755 24.8261 205.587 26.0112 205.587Z" fill="#F2F8FD"/>
<path fill-rule="evenodd" clip-rule="evenodd" d="M41.943 186.043C43.1256 186.043 43.1281 184.211 41.943 184.211C40.7604 184.211 40.7579 186.043 41.943 186.043Z" fill="#F2F8FD"/>
<path fill-rule="evenodd" clip-rule="evenodd" d="M25.3984 178.104C26.5811 178.104 26.5835 176.272 25.3984 176.272C24.2158 176.272 24.2133 178.104 25.3984 178.104Z" fill="#F2F8FD"/>
<path fill-rule="evenodd" clip-rule="evenodd" d="M7.62829 207.419C8.81092 207.419 8.81337 205.587 7.62829 205.587C6.44565 205.587 6.4432 207.419 7.62829 207.419Z" fill="#F2F8FD"/>
<path fill-rule="evenodd" clip-rule="evenodd" d="M48.0706 216.58C49.2533 216.58 49.2557 214.748 48.0706 214.748C46.888 214.748 46.8856 216.58 48.0706 216.58Z" fill="#F2F8FD"/>
<path fill-rule="evenodd" clip-rule="evenodd" d="M56.0365 196.426C57.2192 196.426 57.2216 194.594 56.0365 194.594C54.8539 194.594 54.8514 196.426 56.0365 196.426Z" fill="#F2F8FD"/>
<path fill-rule="evenodd" clip-rule="evenodd" d="M88.513 214.138C89.6956 214.138 89.6981 212.305 88.513 212.305C87.3304 212.305 87.3279 214.138 88.513 214.138Z" fill="#F2F8FD"/>
<path fill-rule="evenodd" clip-rule="evenodd" d="M2.72619 155.506C3.90883 155.506 3.91128 153.674 2.72619 153.674C1.54356 153.674 1.54111 155.506 2.72619 155.506Z" fill="#F2F8FD"/>
<path fill-rule="evenodd" clip-rule="evenodd" d="M41.3303 132.298C42.5129 132.298 42.5153 130.466 41.3303 130.466C40.1476 130.466 40.1452 132.298 41.3303 132.298Z" fill="#F2F8FD"/>
<path fill-rule="evenodd" clip-rule="evenodd" d="M33.3643 111.533C34.5469 111.533 34.5494 109.7 33.3643 109.7C32.1817 109.7 32.1792 111.533 33.3643 111.533Z" fill="#F2F8FD"/>
<path fill-rule="evenodd" clip-rule="evenodd" d="M13.1431 117.029C14.3258 117.029 14.3282 115.197 13.1431 115.197C11.9605 115.197 11.958 117.029 13.1431 117.029Z" fill="#F2F8FD"/>
<path fill-rule="evenodd" clip-rule="evenodd" d="M10.0793 85.2707C11.262 85.2707 11.2644 83.4385 10.0793 83.4385C8.8967 83.4385 8.89425 85.2707 10.0793 85.2707Z" fill="#F2F8FD"/>
<path fill-rule="evenodd" clip-rule="evenodd" d="M27.8495 68.1699C29.0321 68.1699 29.0345 66.3376 27.8495 66.3376C26.6668 66.3376 26.6644 68.1699 27.8495 68.1699Z" fill="#F2F8FD"/>
<path fill-rule="evenodd" clip-rule="evenodd" d="M18.658 48.0154C19.8407 48.0154 19.8431 46.1832 18.658 46.1832C17.4754 46.1832 17.4729 48.0154 18.658 48.0154Z" fill="#F2F8FD"/>
<path fill-rule="evenodd" clip-rule="evenodd" d="M2.11345 63.284C3.29608 63.284 3.29853 61.4518 2.11345 61.4518C0.930815 61.4518 0.928364 63.284 2.11345 63.284Z" fill="#F2F8FD"/>
<path fill-rule="evenodd" clip-rule="evenodd" d="M0.887893 23.5857C2.07053 23.5857 2.07298 21.7535 0.887893 21.7535C-0.294739 21.7535 -0.29719 23.5857 0.887893 23.5857Z" fill="#F2F8FD"/>
<path fill-rule="evenodd" clip-rule="evenodd" d="M30.5177 10.9128C31.7003 10.9128 31.7028 9.08059 30.5177 9.08059C29.3351 9.08059 29.3326 10.9128 30.5177 10.9128Z" fill="#F2F8FD"/>
<path fill-rule="evenodd" clip-rule="evenodd" d="M84.8364 14.4245C86.019 14.4245 86.0215 12.5923 84.8364 12.5923C83.6538 12.5923 83.6513 14.4245 84.8364 14.4245Z" fill="#F2F8FD"/>
<path fill-rule="evenodd" clip-rule="evenodd" d="M290.112 190.319C291.295 190.319 291.297 188.486 290.112 188.486C288.929 188.486 288.927 190.319 290.112 190.319Z" fill="#F2F8FD"/>
<path fill-rule="evenodd" clip-rule="evenodd" d="M105.67 110.311C106.853 110.311 106.855 108.479 105.67 108.479C104.488 108.479 104.485 110.311 105.67 110.311Z" fill="#F2F8FD"/>
<path fill-rule="evenodd" clip-rule="evenodd" d="M80.5471 123.137C81.7297 123.137 81.7321 121.304 80.5471 121.304C79.3644 121.304 79.362 123.137 80.5471 123.137Z" fill="#F2F8FD"/>
<path fill-rule="evenodd" clip-rule="evenodd" d="M195.746 85.8815C196.93 85.8815 196.932 84.0493 195.746 84.0493C194.563 84.0493 194.561 85.8815 195.746 85.8815Z" fill="#F2F8FD"/>
<path fill-rule="evenodd" clip-rule="evenodd" d="M197.585 101.761C198.768 101.761 198.77 99.9286 197.585 99.9286C196.402 99.9286 196.4 101.761 197.585 101.761Z" fill="#F2F8FD"/>
<path fill-rule="evenodd" clip-rule="evenodd" d="M217.806 122.526C218.989 122.526 218.991 120.694 217.806 120.694C216.623 120.694 216.621 122.526 217.806 122.526Z" fill="#F2F8FD"/>
<path fill-rule="evenodd" clip-rule="evenodd" d="M71.899 73.8035L65.68 70.4908L72.1441 64.1672L81.7038 69.1246L71.899 73.8035Z" fill="black" fill-opacity="0.9"/>
<path fill-rule="evenodd" clip-rule="evenodd" d="M121.302 106.02L116.903 106.323L116.435 103.675L119.538 101.636L121.302 106.02Z" fill="#23BBB8"/>
<path fill-rule="evenodd" clip-rule="evenodd" d="M59.6048 144.14L55.2051 144.441L54.7364 141.794L57.8376 139.755L59.6048 144.14Z" fill="#23BBB8"/>
<path fill-rule="evenodd" clip-rule="evenodd" d="M123.924 84.114L119.524 84.4157L119.06 81.7669L122.158 79.7276L123.924 84.114Z" fill="#23BBB8"/>
<path fill-rule="evenodd" clip-rule="evenodd" d="M35.3639 83.0037L30.9624 83.3048L30.498 80.6579L33.5979 78.618L35.3639 83.0037Z" fill="#23BBB8"/>
<path fill-rule="evenodd" clip-rule="evenodd" d="M170.906 157.069L166.506 157.371L166.041 154.724L169.141 152.683L170.906 157.069Z" fill="#23BBB8"/>
<path fill-rule="evenodd" clip-rule="evenodd" d="M103.181 59.3401L98.7801 59.64L98.3132 56.9942L101.417 54.9531L103.181 59.3401Z" fill="#23BBB8"/>
<path fill-rule="evenodd" clip-rule="evenodd" d="M183.831 117.016L179.433 117.317L178.967 114.67L182.066 112.631L183.831 117.016Z" fill="#23BBB8"/>
<path fill-rule="evenodd" clip-rule="evenodd" d="M201.987 76.0007L197.587 76.3018L197.122 73.6555L200.22 71.6156L201.987 76.0007Z" fill="#23BBB8"/>
<path fill-rule="evenodd" clip-rule="evenodd" d="M161.571 173.613L157.172 173.914L156.705 171.268L159.806 169.227L161.571 173.613Z" fill="#23BBB8"/>
<path fill-rule="evenodd" clip-rule="evenodd" d="M146.694 103.833L146.919 106.558L143.62 105.036L143.406 101.401L146.694 103.833Z" fill="#EB008B"/>
<path fill-rule="evenodd" clip-rule="evenodd" d="M26.0582 123.967L23.4962 125.316L23.5765 121.902L27.03 120.171L26.0582 123.967Z" fill="#EB008B"/>
<path fill-rule="evenodd" clip-rule="evenodd" d="M148.856 199.809L146.291 201.161L146.375 197.746L149.828 196.017L148.856 199.809Z" fill="#EB008B"/>
<path fill-rule="evenodd" clip-rule="evenodd" d="M78.1783 98.4837L75.4564 99.5372L75.9864 96.1561L79.6391 94.8271L78.1783 98.4837Z" fill="#EB008B"/>
<path fill-rule="evenodd" clip-rule="evenodd" d="M122.984 166.77L125.932 166.734L124.08 169.689L120.155 169.657L122.984 166.77Z" fill="#EB008B"/>
<path fill-rule="evenodd" clip-rule="evenodd" d="M103.081 172.863L98.6894 174.299L97.4344 169.855L102.74 168.173L103.081 172.863Z" fill="#FFD200"/>
<path fill-rule="evenodd" clip-rule="evenodd" d="M74.7854 116.42L75.0403 120.731L70.0855 120.6L69.8312 115.408L74.7854 116.42Z" fill="#FFD200"/>
<path fill-rule="evenodd" clip-rule="evenodd" d="M49.698 57.5732L45.3038 59.0096L44.0501 54.564L49.356 52.882L49.698 57.5732Z" fill="#FFD200"/>
<path fill-rule="evenodd" clip-rule="evenodd" d="M134.377 54.4985L129.986 55.9332L128.73 51.4882L134.036 49.8086L134.377 54.4985Z" fill="#FFD200"/>
<path fill-rule="evenodd" clip-rule="evenodd" d="M103.861 84.5246L99.4691 85.961L98.216 81.5167L103.519 79.8365L103.861 84.5246Z" fill="#FFD200"/>
<path fill-rule="evenodd" clip-rule="evenodd" d="M193.848 145.019L189.457 146.456L188.204 142.012L193.507 140.327L193.848 145.019Z" fill="#FFD200"/>
<path fill-rule="evenodd" clip-rule="evenodd" d="M86.7405 149.281L83.415 146.282L89.0659 143.447L94.1991 147.976L86.7405 149.281Z" fill="#1B75BB"/>
<path fill-rule="evenodd" clip-rule="evenodd" d="M51.506 110.842L48.1769 107.459L53.8511 104.573L58.994 109.685L51.506 110.842Z" fill="black" fill-opacity="0.9"/>
<path fill-rule="evenodd" clip-rule="evenodd" d="M28.0224 158.607L28.5426 155.027L33.2983 156.748L32.5679 162.219L28.0224 158.607Z" fill="black" fill-opacity="0.9"/>
<path fill-rule="evenodd" clip-rule="evenodd" d="M182.397 55.0512L185.328 52.6742L187.69 56.8706L183.255 60.5454L182.397 55.0512Z" fill="black" fill-opacity="0.9"/>
<path fill-rule="evenodd" clip-rule="evenodd" d="M211.352 55.0512L214.281 52.6742L216.645 56.8706L212.21 60.5454L211.352 55.0512Z" fill="#1B75BB"/>
<path fill-rule="evenodd" clip-rule="evenodd" d="M124.815 150.352L119.322 152.653L119.489 145.777L126.766 142.717L124.815 150.352Z" fill="#EB008B"/>
<path fill-rule="evenodd" clip-rule="evenodd" d="M232.108 107.239L226.614 109.541L226.783 102.665L234.058 99.6047L232.108 107.239Z" fill="black" fill-opacity="0.9"/>
<path fill-rule="evenodd" clip-rule="evenodd" d="M200.689 96.9276L200.479 102.03L194.481 99.1031L194.745 92.3348L200.689 96.9276Z" fill="black" fill-opacity="0.9"/>
<path fill-rule="evenodd" clip-rule="evenodd" d="M80.0797 168.681L71.2412 171.57L68.7166 162.624L79.3928 159.24L80.0797 168.681Z" fill="#FFD200"/>
<path fill-rule="evenodd" clip-rule="evenodd" d="M288.842 169.082L283.533 169.445L282.968 166.251L286.712 163.786L288.842 169.082Z" fill="#23BBB8"/>
<path fill-rule="evenodd" clip-rule="evenodd" d="M240.956 180.005L235.648 180.37L238.828 174.714L240.956 180.005Z" fill="#23BBB8"/>
<path fill-rule="evenodd" clip-rule="evenodd" d="M235.071 154.622L229.76 154.986L229.199 151.789L232.939 149.327L235.071 154.622Z" fill="#23BBB8"/>
<path fill-rule="evenodd" clip-rule="evenodd" d="M210.033 124.72L204.721 125.082L204.158 121.888L207.903 119.425L210.033 124.72Z" fill="#23BBB8"/>
<path fill-rule="evenodd" clip-rule="evenodd" d="M117.51 86.8698L112.201 87.2338L111.639 84.039L115.381 81.5771L117.51 86.8698Z" fill="#23BBB8"/>
<path fill-rule="evenodd" clip-rule="evenodd" d="M139.425 37.3646L134.114 37.728L133.551 34.5338L137.292 32.0713L139.425 37.3646Z" fill="#23BBB8"/>
<path fill-rule="evenodd" clip-rule="evenodd" d="M256.457 162.518L256.728 165.806L252.746 163.969L252.488 159.581L256.457 162.518Z" fill="black" fill-opacity="0.9"/>
<path fill-rule="evenodd" clip-rule="evenodd" d="M255.395 146.014L252.299 147.644L252.399 143.522L256.569 141.435L255.395 146.014Z" fill="black" fill-opacity="0.9"/>
<path fill-rule="evenodd" clip-rule="evenodd" d="M151.608 53.4469L148.512 55.0763L148.612 50.9544L152.782 48.8675L151.608 53.4469Z" fill="black" fill-opacity="0.9"/>
<path fill-rule="evenodd" clip-rule="evenodd" d="M247.687 118.876L242.388 120.608L240.871 115.243L247.276 113.215L247.687 118.876Z" fill="#FFD200"/>
<path fill-rule="evenodd" clip-rule="evenodd" d="M220.051 176.261L214.75 177.995L213.238 172.63L219.638 170.602L220.051 176.261Z" fill="#FFD200"/>
<path fill-rule="evenodd" clip-rule="evenodd" d="M150.728 12.0785L154.264 9.20979L157.116 14.2741L151.763 18.7099L150.728 12.0785Z" fill="black" fill-opacity="0.9"/>
<path fill-rule="evenodd" clip-rule="evenodd" d="M221.867 194.004L211.18 194.734L210.046 188.307L217.575 183.352L221.867 194.004Z" fill="#007AFF"/>
<path fill-rule="evenodd" clip-rule="evenodd" d="M273.151 126.25L272.899 132.408L265.657 128.876L265.976 120.706L273.151 126.25Z" fill="black" fill-opacity="0.9"/>
<path fill-rule="evenodd" clip-rule="evenodd" d="M103.181 189.374L98.7801 189.673L98.3132 187.027L101.417 184.986L103.181 189.374Z" fill="#23BBB8"/>
<path fill-rule="evenodd" clip-rule="evenodd" d="M78.0909 195.717L73.6913 196.017L73.2237 193.372L76.3255 191.33L78.0909 195.717Z" fill="#23BBB8"/>
<path fill-rule="evenodd" clip-rule="evenodd" d="M49.698 187.607L45.3038 189.043L44.0501 184.597L49.356 182.915L49.698 187.607Z" fill="#FFD200"/>
<path fill-rule="evenodd" clip-rule="evenodd" d="M134.377 184.531L129.986 185.967L128.73 181.522L134.036 179.842L134.377 184.531Z" fill="#FFD200"/>
<path fill-rule="evenodd" clip-rule="evenodd" d="M94.4156 166.993C94.4156 166.993 95.2661 167.925 94.3623 170.224C93.453 172.535 89.3376 185.989 93.2728 187.828C93.2728 187.828 89.2476 189.649 85.7321 185.199C82.1162 180.62 87.0306 167.577 90.9596 165.029L94.4156 166.993Z" fill="#4252FF"/>
<path fill-rule="evenodd" clip-rule="evenodd" d="M73.8348 157.746C72.8072 160.207 68.1777 174.602 72.7471 176.759C72.7471 176.759 68.1085 178.565 63.9901 173.589C59.7437 168.46 63.7481 157.601 67.8781 151.397L73.8348 157.746Z" fill="#4252FF"/>
<path fill-rule="evenodd" clip-rule="evenodd" d="M94.4156 166.993L87.587 162.877C87.587 162.877 75.8238 180.869 65.6299 175.18C65.6299 175.18 76.4641 183.944 85.2518 176.284C93.5908 169.011 94.4156 166.993 94.4156 166.993Z" fill="#A1A9FF"/>
<path fill-rule="evenodd" clip-rule="evenodd" d="M84.5477 182.734C84.5477 182.734 86.5477 188.503 95.98 185.712C106.377 182.77 111.308 196.942 111.308 196.942L106.803 204.289C106.803 204.289 107.575 189.943 98.515 190.01C88.7715 190.08 86.8504 188.895 84.5477 182.734Z" fill="#A1A9FF"/>
<path fill-rule="evenodd" clip-rule="evenodd" d="M190.014 157.611C190.014 157.611 189.421 158.5 190.473 160.312C191.531 162.134 196.705 172.889 193.641 174.93C193.641 174.93 197.249 175.944 199.626 171.768C202.069 167.469 196.279 157.16 192.66 155.524L190.014 157.611Z" fill="#FFCC00"/>
<path fill-rule="evenodd" clip-rule="evenodd" d="M206.081 147.239C207.259 149.171 212.984 160.65 209.43 163.04C209.43 163.04 213.549 163.963 216.365 159.268C219.267 154.428 214.519 145.834 210.262 141.159L206.081 147.239Z" fill="#FFCC00"/>
<path fill-rule="evenodd" clip-rule="evenodd" d="M190.014 157.611L195.211 153.292C195.211 153.292 207.377 166.876 215.193 160.81C215.193 160.81 207.234 169.536 198.886 164.232C190.964 159.197 190.014 157.611 190.014 157.611Z" fill="#E89A24"/>
<path fill-rule="evenodd" clip-rule="evenodd" d="M200.303 169.551C200.303 169.551 199.365 174.642 191.101 173.502C182.009 172.358 179.688 184.866 179.688 184.866L184.407 190.453C184.407 190.453 181.923 178.524 189.525 177.427C197.704 176.246 199.162 175.008 200.303 169.551Z" fill="#E89A24"/>
<path fill-rule="evenodd" clip-rule="evenodd" d="M225.008 83.5042L220.373 82.5386L222.423 86.7931L220.071 90.8881L224.764 90.2584L228.432 80.2453L225.008 83.5042Z" fill="#FF9500"/>
<path fill-rule="evenodd" clip-rule="evenodd" d="M64.6364 3.25892L60.0021 2.29334L62.0518 6.54778L59.6994 10.6428L64.3925 10.0131L68.0605 0L64.6364 3.25892Z" fill="#FF9500"/>
<path fill-rule="evenodd" clip-rule="evenodd" d="M229.112 89.1115L233.431 87.1766L229.262 84.937L228.75 80.2453L225.082 90.2584L228.263 93.7537L229.112 89.1115Z" fill="#FFCC00"/>
<path fill-rule="evenodd" clip-rule="evenodd" d="M68.7411 8.86616L73.0599 6.93132L68.8913 4.69173L68.379 0L64.711 10.0131L67.8918 13.5084L68.7411 8.86616Z" fill="#FFCC00"/>
<path fill-rule="evenodd" clip-rule="evenodd" d="M213.619 27.2456L210.266 26.5568L211.749 29.5917L210.047 32.5129L213.443 32.0638L216.096 24.9208L213.619 27.2456Z" fill="#FF9500"/>
<path fill-rule="evenodd" clip-rule="evenodd" d="M216.589 31.2456L219.713 29.8653L216.697 28.2677L216.327 24.9208L213.673 32.0638L215.974 34.5571L216.589 31.2456Z" fill="#FFCC00"/>
<path fill-rule="evenodd" clip-rule="evenodd" d="M40.2177 128.48L36.865 127.791L38.3479 130.826L36.646 133.747L40.0413 133.298L42.6949 126.155L40.2177 128.48Z" fill="#FF9500"/>
<path fill-rule="evenodd" clip-rule="evenodd" d="M43.1873 132.48L46.3116 131.1L43.2959 129.502L42.9253 126.155L40.2717 133.298L42.5728 135.791L43.1873 132.48Z" fill="#FFCC00"/>
<path fill-rule="evenodd" clip-rule="evenodd" d="M161.843 283.716L77.7412 263.778L139.333 243.623L224.08 259.563L161.843 283.716Z" fill="#F0C414"/>
<path fill-rule="evenodd" clip-rule="evenodd" d="M95.7829 194.51L148.906 183.985L203.031 193.145L158.929 204.032L95.7829 194.51Z" fill="#86172E"/>
<path fill-rule="evenodd" clip-rule="evenodd" d="M148.906 183.985L149.34 250.298L198.16 258.658L204.033 192.505L148.906 183.985Z" fill="#B6203F"/>
<path fill-rule="evenodd" clip-rule="evenodd" d="M158.929 272.691L103.187 259.85L95.7829 194.51L158.929 203.68V272.691Z" fill="black" fill-opacity="0.9"/>
<path fill-rule="evenodd" clip-rule="evenodd" d="M158.929 203.676L204.033 192.505L198.521 258.658L158.929 272.691V203.676Z" fill="#FF7491"/>
<path fill-rule="evenodd" clip-rule="evenodd" d="M173.463 267.679L183.466 264.087L191.003 195.512L181.208 198.02L173.463 267.679Z" fill="#EBB02A"/>
<path fill-rule="evenodd" clip-rule="evenodd" d="M120.969 264.387L113.825 197.517L125.895 199.289L130.864 266.677L120.969 264.387Z" fill="#EBB02A"/>
<path fill-rule="evenodd" clip-rule="evenodd" d="M203.031 112.32L160.934 128.357L161.936 142.389L203.031 127.354V112.32Z" fill="#FF7491"/>
<path fill-rule="evenodd" clip-rule="evenodd" d="M203.031 112.32L159.454 109.293L144.874 108.31L89.769 125.35L160.934 128.357L203.031 112.32Z" fill="#FF8DA5"/>
<path fill-rule="evenodd" clip-rule="evenodd" d="M92.7759 138.38L161.936 142.389L160.934 128.357L89.769 125.35L92.7759 138.38Z" fill="black" fill-opacity="0.9"/>
<path fill-rule="evenodd" clip-rule="evenodd" d="M108.312 126.352L122.846 126.853L125.351 140.384L111.319 139.382L108.312 126.352Z" fill="#EBB02A"/>
<path fill-rule="evenodd" clip-rule="evenodd" d="M108.312 126.352L158.894 109.313L170.957 110.14L122.846 126.853L108.312 126.352Z" fill="#F2BB4E"/>
<path fill-rule="evenodd" clip-rule="evenodd" d="M180.98 120.839V135.373L191.003 131.865V116.83L180.98 120.839Z" fill="#EBB02A"/>
<path fill-rule="evenodd" clip-rule="evenodd" d="M191.003 116.83L126.855 113.823L115.829 117.331L180.98 120.839L191.003 116.83Z" fill="#F2BB4E"/>
<path fill-rule="evenodd" clip-rule="evenodd" d="M105.815 96.7398C105.815 96.7398 122.151 115.427 141.887 116.091C146.468 115.611 148.548 114.281 148.548 114.281L120.07 96.0597C121.465 90.0136 124.571 84.4827 129.03 80.1116C130.894 78.2837 128.879 75.2486 126.435 76.2029L118.276 79.3903L109.905 87.4396L105.815 96.7398Z" fill="#E89A24"/>
<path fill-rule="evenodd" clip-rule="evenodd" d="M146.468 115.611L130.434 87.1859C130.103 86.5993 129.516 86.2019 128.843 86.1049C126.81 85.8125 122.156 85.5273 116.584 87.7095C109.073 90.6512 105.815 96.7397 105.815 96.7397L109.905 87.4395C111.067 84.7975 112.759 82.4151 114.879 80.4356C118.815 76.7622 123.756 74.3076 129.092 73.3758L133.893 72.5374C135.887 72.1891 137.837 73.3467 138.46 75.2486L150.765 112.863L146.468 115.611Z" fill="#F2BB4E"/>
<path fill-rule="evenodd" clip-rule="evenodd" d="M186.543 88.2815C186.543 88.2815 174.552 109.937 155.397 114.675C150.816 115.155 148.499 114.286 148.499 114.286L172.461 90.5705C169.811 84.9485 165.594 80.1843 160.305 76.8349C158.093 75.4341 159.417 72.0489 162.009 72.476L170.666 73.9011L180.564 80.0363L186.543 88.2815Z" fill="#E89A24"/>
<path fill-rule="evenodd" clip-rule="evenodd" d="M150.816 115.155L160.439 84.0416C160.637 83.4004 161.127 82.8902 161.765 82.656C163.689 81.9486 168.179 80.705 174.092 81.6841C182.062 83.0042 186.543 88.2816 186.543 88.2816L180.564 80.0358C178.866 77.6935 176.704 75.7151 174.208 74.2191C169.579 71.443 164.225 70.0677 158.81 70.2618L153.937 70.4377C151.912 70.5105 150.253 72.0454 150.05 74.0341L146.031 113.359L150.816 115.155Z" fill="#F2BB4E"/>
</svg>
