<svg width="20" height="20" viewBox="0 0 20 20" fill="none" xmlns="http://www.w3.org/2000/svg">
<rect width="20" height="20" transform="matrix(-1 0 0 1 20 0)" fill="black"/>
<path d="M11.5858 10.0001L6.29289 4.45515C5.90237 4.04603 5.90237 3.38271 6.29289 2.97359C6.68342 2.56447 7.31658 2.56447 7.70711 2.97359L13.7071 9.2593C14.0976 9.66842 14.0976 10.3317 13.7071 10.7409L7.70711 17.0266C7.31658 17.4357 6.68342 17.4357 6.29289 17.0266C5.90237 16.6175 5.90237 15.9541 6.29289 15.545L11.5858 10.0001Z" fill="#4A4A4A"/>
<mask id="mask0_14_1252" style="mask-type:luminance" maskUnits="userSpaceOnUse" x="6" y="2" width="8" height="16">
<path d="M11.5858 10.0001L6.29289 4.45515C5.90237 4.04603 5.90237 3.38271 6.29289 2.97359C6.68342 2.56447 7.31658 2.56447 7.70711 2.97359L13.7071 9.2593C14.0976 9.66842 14.0976 10.3317 13.7071 10.7409L7.70711 17.0266C7.31658 17.4357 6.68342 17.4357 6.29289 17.0266C5.90237 16.6175 5.90237 15.9541 6.29289 15.545L11.5858 10.0001Z" fill="white"/>
</mask>
<g mask="url(#mask0_14_1252)">
<rect width="20" height="20" transform="matrix(-1 0 0 1 20 0)" fill="#DAD9E2"/>
</g>
</svg>
