<svg width="30" height="28" viewBox="0 0 30 28" fill="none" xmlns="http://www.w3.org/2000/svg">
<rect width="30" height="27.6667" fill="black"/>
<path fill-rule="evenodd" clip-rule="evenodd" d="M3.24271 6.11236C2.85764 5.29281 3.67309 4.42434 4.51524 4.75707L26.0781 13.2765C26.9219 13.6099 26.9214 14.8042 26.0773 15.1369L4.48644 23.6456C3.64796 23.976 2.83458 23.1158 3.2114 22.2971L6.24367 15.7091C6.40013 15.3692 6.73329 15.145 7.10713 15.1282L27.5696 14.2077L7.07317 13.0334C6.7068 13.0124 6.38135 12.7924 6.22529 12.4603L3.24271 6.11236Z" fill="#DC0D0D"/>
<mask id="mask0_15_1636" style="mask-type:luminance" maskUnits="userSpaceOnUse" x="3" y="4" width="25" height="20">
<path fill-rule="evenodd" clip-rule="evenodd" d="M3.24271 6.11236C2.85764 5.29281 3.67309 4.42434 4.51524 4.75707L26.0781 13.2765C26.9219 13.6099 26.9214 14.8042 26.0773 15.1369L4.48644 23.6456C3.64796 23.976 2.83458 23.1158 3.2114 22.2971L6.24367 15.7091C6.40013 15.3692 6.73329 15.145 7.10713 15.1282L27.5696 14.2077L7.07317 13.0334C6.7068 13.0124 6.38135 12.7924 6.22529 12.4603L3.24271 6.11236Z" fill="white"/>
</mask>
<g mask="url(#mask0_15_1636)">
<rect width="30" height="27.6667" fill="#F0C414"/>
</g>
</svg>
