<svg width="120" height="127" viewBox="0 0 120 127" fill="none" xmlns="http://www.w3.org/2000/svg">
<g filter="url(#filter0_f_1_117)">
<path fill-rule="evenodd" clip-rule="evenodd" d="M60 127C88.1665 127 111 124.314 111 121C111 117.686 88.1665 115 60 115C31.8335 115 9 117.686 9 121C9 124.314 31.8335 127 60 127Z" fill="black" fill-opacity="0.2"/>
</g>
<rect width="120" height="120" rx="34" fill="white"/>
<mask id="mask0_1_117" style="mask-type:luminance" maskUnits="userSpaceOnUse" x="0" y="0" width="120" height="120">
<rect width="120" height="120" rx="34" fill="white"/>
</mask>
<g mask="url(#mask0_1_117)">
<path fill-rule="evenodd" clip-rule="evenodd" d="M58.2293 -12V0.645075H52.5575V49.8526H45.1074V34.6987H41.1838V31.0384L32.601 34.6987H30.4984V25.5954L20.2291 12.4011L9.96024 25.5954V56.5529H5.13972V62.5689H-1.97314V38.0161H-7.86799L-7.62246 27.8288H-14.4442V24.9111H-21.356L-22.4196 7.26697L-23.4827 24.9111H-24.8122V27.8288H-26.606L-25.9487 55.1116H-27.2219V43.075L-41.513 34.6987V49.8526H-55.8047V38.0161H-64.6266V31.0384L-79.7385 41.628V31.0384L-100 45.2367V149H-84.8887H-79.7385H-65.2704H-64.6266H-55.8047H-41.513H-27.2219H-24.26H-11.4394H-9.96893H-2.79979H-1.97314H9.96024H17.7384H30.4984H45.1074H52.5575H65.1846H70.5824H83.2438H86.677H98.3037H104.634H114.861H118.566H123.84H132.818H135.123H144.102H148.947H153.081H169.208H175.89H184.581H193.272H199.963H201.963H211.67H214.254H223V47.8745H216.118L216.6 27.8288H201.963V-1.18818H193.272V4.97991H184.581V10.6272H175.89V39.7421H169.208V26.2054H166.829V24.7125H151.327V26.2054H148.947V54.4319H144.102V18.1551H141.722V16.6622H126.22V18.1551H123.84V39.0449H118.566V26.2054H116.186V24.7125H100.684V26.2054H98.3037V31.0384L93.3293 36.3556V45.2703H86.677V39.7421H83.2438V26.2054H70.5824V18.1912L65.1846 13.6202V0.645075H59.5122V-12H58.2293Z" fill="#4CE5B1" fill-opacity="0.1"/>
<path fill-rule="evenodd" clip-rule="evenodd" d="M127.039 47V56.5034H122.772V93.4855H117.168V82.0966H114.216V79.3457L107.759 82.0966H106.177V75.2549L98.451 65.3387L90.7255 75.2549V98.5211H87.0989V103.042H81.7478V84.5898H77.3129L77.4977 76.9335H72.3655V74.7406H67.1656L66.3654 61.4801L65.5656 74.7406H64.5654V76.9335H63.2159L63.7104 97.4379H62.7525V88.3918L52.001 82.0966V93.4855H41.2491V84.5898H34.6122V79.3457L23.2432 87.3043V79.3457L8 90.0164V168H19.3686H23.2432H34.1278H34.6122H41.2491H52.001H62.7525H64.9808H74.6261H75.7324H81.1259H81.7478H90.7255H96.5772H106.177H117.168H122.772H132.272H136.333H145.858H148.441H157.188H161.951H169.645H172.432H176.4H183.154H184.889H191.643H195.288H198.398H210.531H215.558H222.096H228.635H233.669H235.173H242.476H244.42H251V91.9988H245.822L246.185 76.9335H235.173V55.1257H228.635V59.7613H222.096V64.0055H215.558V85.8869H210.531V75.7134H208.741V74.5914H197.079V75.7134H195.288V96.9271H191.643V69.6632H189.853V68.5412H178.19V69.6632H176.4V85.363H172.432V75.7134H170.642V74.5914H158.979V75.7134H157.188V79.3457L153.446 83.3418V90.0416H148.441V85.8869H145.858V75.7134H136.333V69.6903L132.272 66.2549V56.5034H128.005V47H127.039Z" fill="#59CDA5" fill-opacity="0.2"/>
<path fill-rule="evenodd" clip-rule="evenodd" d="M-33.6267 75V82.2258H-30.3781V110.344H-26.1111V101.685H-23.8638V99.5934L-18.9479 101.685H-17.7437V96.4831L-11.8618 88.9435L-5.98032 96.4831V114.173H-3.21934V117.611H0.854584V103.581H4.23089L4.09026 97.7593H7.99746V96.092H11.9562L12.5654 86.0097L13.1743 96.092H13.9358V97.7593H14.9632L14.5867 113.349H15.316V106.471L23.5013 101.685V110.344H31.6869V103.581H36.7397V99.5934L45.3951 105.645V99.5934L57 107.707V167H48.3449H45.3951H37.1085H36.7397H31.6869H23.5013H15.316H13.6195H6.27645H5.43422H1.32805H0.854584H-5.98032H-10.4353H-17.7437H-26.1111H-30.3781H-37.6103H-40.702H-47.9539H-49.9202H-56.5795H-60.2055H-66.0627H-68.1847H-71.2055H-76.3479H-77.6682H-82.8107H-85.5858H-87.9535H-97.1904H-101.017H-105.995H-110.973H-114.805H-115.951H-121.511H-122.991H-128V109.214H-124.058L-124.334 97.7593H-115.951V81.1782H-110.973V84.7028H-105.995V87.9298H-101.017V104.567H-97.1904V96.8317H-95.8277V95.9786H-86.9488V96.8317H-85.5858V112.961H-82.8107V92.2315H-81.4474V91.3784H-72.5688V92.2315H-71.2055V104.169H-68.1847V96.8317H-66.8217V95.9786H-57.9431V96.8317H-56.5795V99.5934L-53.7304 102.632V107.726H-49.9202V104.567H-47.9539V96.8317H-40.702V92.2521L-37.6103 89.6401V82.2258H-34.3615V75H-33.6267Z" fill="#59CDA5" fill-opacity="0.2"/>
<path d="M83.799 84.2749L81.3525 81.772L81.3461 81.7783L83.799 84.2749ZM36.216 84.2749L38.6724 81.7817C38.668 81.7773 38.6636 81.773 38.6591 81.7687L36.216 84.2749ZM26.2489 55.9469L29.7234 56.3686L29.7243 56.3605L26.2489 55.9469ZM93.749 55.9662L90.273 56.3754L90.2746 56.3886L93.749 55.9662ZM93.749 56.0387L95.3637 59.144C96.6546 58.4727 97.3956 57.0729 97.2248 55.628L93.749 56.0387ZM26.2489 56.0387L22.7686 55.6679C22.6162 57.0983 23.3544 58.4762 24.6297 59.1417L26.2489 56.0387ZM83.799 84.2749L86.2472 86.7762C87.0488 85.9916 87.4259 84.8703 87.2611 83.7607L83.799 84.2749ZM36.216 84.2749L32.7531 83.7664C32.5907 84.8725 32.9664 85.9897 33.7643 86.7728L36.216 84.2749ZM90.5 60.01C90.5 68.5346 87.0026 76.2491 81.3525 81.772L86.2456 86.7778C93.1927 79.987 97.5 70.488 97.5 60.01H90.5ZM81.3461 81.7783C75.8367 87.1912 68.3153 90.51 59.9989 90.51V97.51C70.2224 97.51 79.4858 93.4192 86.252 86.7715L81.3461 81.7783ZM59.9989 90.51C51.698 90.51 44.1617 87.19 38.6724 81.7817L33.7596 86.7681C40.5114 93.4203 49.7944 97.51 59.9989 97.51V90.51ZM38.6591 81.7687C32.9951 76.2472 29.5 68.5347 29.5 60.01H22.5C22.5 70.4879 26.8052 79.9888 33.7728 86.7811L38.6591 81.7687ZM29.5 60.01C29.5 58.7792 29.5785 57.5623 29.7234 56.3686L22.7744 55.5252C22.5974 56.9831 22.5 58.482 22.5 60.01H29.5ZM29.7243 56.3605C31.5233 41.2441 44.3996 29.51 59.9989 29.51V22.51C40.8098 22.51 24.9862 36.9394 22.7734 55.5333L29.7243 56.3605ZM59.9989 29.51C75.6184 29.51 88.4917 41.2442 90.273 56.3754L97.225 55.557C95.0332 36.9393 79.2065 22.51 59.9989 22.51V29.51ZM90.2746 56.3886C90.42 57.5853 90.5 58.7845 90.5 60.01H97.5C97.5 58.4768 97.3998 56.9944 97.2234 55.5439L90.2746 56.3886ZM92.1343 52.9335C83.2111 57.5735 72.8657 60.3628 60.6521 60.3628V67.3628C73.9885 67.3628 85.4418 64.3034 95.3637 59.144L92.1343 52.9335ZM60.6521 60.3628C48.3686 60.3628 36.7321 57.5613 27.8681 52.9358L24.6297 59.1417C34.6107 64.35 47.3811 67.3628 60.6521 67.3628V60.3628ZM29.7292 56.4096C31.3794 40.9215 45.1799 29.1286 60.5656 29.5089L60.7386 22.5111C41.7846 22.0425 24.813 36.4803 22.7686 55.6679L29.7292 56.4096ZM60.5656 29.5089C76.0047 29.8906 88.4784 41.2623 90.2732 56.4495L97.2248 55.628C95.019 36.9627 79.639 22.9784 60.7386 22.5111L60.5656 29.5089ZM81.3509 81.7736C75.7926 87.2137 68.3735 90.51 59.9989 90.51V97.51C70.2922 97.51 79.4452 93.4336 86.2472 86.7762L81.3509 81.7736ZM59.9989 90.51C51.6399 90.51 44.2057 87.2126 38.6676 81.777L33.7643 86.7728C40.552 93.4348 49.7247 97.51 59.9989 97.51V90.51ZM39.6788 84.7834C41.1218 74.9578 50.1153 67.3628 60.6521 67.3628V60.3628C46.8614 60.3628 34.7319 70.292 32.7531 83.7664L39.6788 84.7834ZM60.6521 67.3628C70.9493 67.3628 78.842 74.7229 80.337 84.7891L87.2611 83.7607C85.2956 70.5269 74.678 60.3628 60.6521 60.3628V67.3628Z" fill="#F8A6A1"/>
</g>
<defs>
<filter id="filter0_f_1_117" x="0.845155" y="106.845" width="118.31" height="28.3097" filterUnits="userSpaceOnUse" color-interpolation-filters="sRGB">
<feFlood flood-opacity="0" result="BackgroundImageFix"/>
<feBlend mode="normal" in="SourceGraphic" in2="BackgroundImageFix" result="shape"/>
<feGaussianBlur stdDeviation="4.07742" result="effect1_foregroundBlur_1_117"/>
</filter>
</defs>
</svg>
