<svg width="26" height="30" viewBox="0 0 26 30" fill="none" xmlns="http://www.w3.org/2000/svg">
<path fill-rule="evenodd" clip-rule="evenodd" d="M10.8042 7.06055H19.2664C23.8094 7.06055 25.52 9.36029 25.2559 12.7446C24.8204 18.3236 21.4472 21.4085 16.9732 21.4085H14.7144C14.1012 21.4085 13.6886 21.8138 13.5217 22.9154L12.5526 29.3111C12.4897 29.7265 12.2712 29.9705 11.9429 30H6.63677C6.13749 30 5.95986 29.618 6.09056 28.7908L9.33088 8.27423C9.46071 7.45203 9.91051 7.06055 10.8042 7.06055Z" fill="#009DE2"/>
<path fill-rule="evenodd" clip-rule="evenodd" d="M5.51372 0H13.9844C16.3702 0 19.1997 0.07745 21.0927 1.74688C22.3571 2.86209 23.0207 4.63887 22.8674 6.54633C22.348 13.0145 18.479 16.6372 13.2908 16.6372H9.11308C8.40201 16.6372 7.93067 17.1084 7.73013 18.3845L6.56432 25.8006C6.48873 26.2818 6.28014 26.5653 5.89938 26.5995H0.681384C0.102372 26.5995 -0.103485 26.1566 0.0480279 25.1973L3.80542 1.40733C3.956 0.45395 4.47748 0 5.51372 0Z" fill="#113984"/>
<path fill-rule="evenodd" clip-rule="evenodd" d="M7.85156 17.6369L9.3309 8.27417C9.46072 7.45197 9.91052 7.06055 10.8042 7.06055H19.2665C20.6673 7.06055 21.7991 7.27922 22.6861 7.68233C21.8358 13.4387 18.1127 16.6373 13.2369 16.6373H9.05918C8.50914 16.6373 8.09834 16.9182 7.85156 17.6369Z" fill="#172C70"/>
</svg>
