<svg width="30" height="24" viewBox="0 0 30 24" fill="none" xmlns="http://www.w3.org/2000/svg">
<path fill-rule="evenodd" clip-rule="evenodd" d="M30 20.8333V2.5C30 1.11979 28.8802 0 27.5 0H2.5C1.11979 0 0 1.11979 0 2.5V20.8333C0 22.2135 1.11979 23.3333 2.5 23.3333H27.5C28.8802 23.3333 30 22.2135 30 20.8333ZM24.9688 12.724C24.8802 12.3177 24.4844 10.3802 24.4844 10.3802L24.3385 9.68229C24.2852 9.83692 24.2114 10.0407 24.1535 10.2006L24.1534 10.2008L24.1534 10.2009C24.0982 10.3534 24.0574 10.466 24.0625 10.4583C24.0625 10.4583 23.401 12.2604 23.2292 12.724H24.9688ZM7.94271 15.5833L11.2344 7.5H9.02083L6.97396 13.0208L6.75 11.901L6.02083 8.18229C5.90104 7.66667 5.53125 7.52083 5.07292 7.5H1.70312L1.66667 7.66146C2.48958 7.86979 3.22396 8.17188 3.86458 8.55208L5.72917 15.5833H7.94271ZM14.1719 7.5L12.8594 15.5938H10.7708L12.0781 7.5H14.1719ZM20.1458 12.9479C20.1562 12.026 19.5938 11.3229 18.3906 10.7448C17.6562 10.375 17.2083 10.125 17.2083 9.74479C17.2188 9.40104 17.5885 9.04688 18.4115 9.04688C19.0938 9.03125 19.5938 9.19271 19.9688 9.35417L20.1562 9.44271L20.4427 7.69271C20.0312 7.53125 19.375 7.34896 18.5677 7.34896C16.5 7.34896 15.0469 8.45312 15.0365 10.026C15.0208 11.1875 16.0781 11.8333 16.8698 12.224C17.6771 12.6198 17.9531 12.8802 17.9531 13.2292C17.9427 13.7708 17.2969 14.0208 16.6979 14.0208C15.8646 14.0208 15.4167 13.8906 14.7344 13.5885L14.4583 13.4583L14.1667 15.276C14.6562 15.5 15.5625 15.6979 16.5 15.7083C18.6979 15.7135 20.1302 14.625 20.1458 12.9479ZM25.8125 7.5L27.5 15.5938H25.5625C25.5625 15.5938 25.375 14.6667 25.3125 14.3802H22.625C22.5469 14.5938 22.1875 15.5938 22.1875 15.5938H19.9896L23.099 8.17188C23.3125 7.64583 23.6927 7.5 24.1927 7.5H25.8125Z" fill="black"/>
</svg>
