<svg width="18" height="18" viewBox="0 0 18 18" fill="none" xmlns="http://www.w3.org/2000/svg">
<path fill-rule="evenodd" clip-rule="evenodd" d="M0 9C0 4.02991 4.02991 0 9 0C13.9701 0 18 4.02991 18 9C18 13.9701 13.9701 18 9 18C4.02991 18 0 13.9701 0 9ZM13.4437 12.2585C13.4437 12.1741 13.4116 12.0938 13.3513 12.0335L10.3138 8.98393L13.3634 5.97054C13.4879 5.84598 13.4879 5.64107 13.3634 5.51652L12.4955 4.64464C12.4353 4.58437 12.3549 4.55223 12.2705 4.55223C12.1862 4.55223 12.1058 4.58437 12.0455 4.64464L9.00402 7.64598L5.9625 4.64464C5.90223 4.58437 5.82187 4.55223 5.7375 4.55223C5.65312 4.55223 5.57277 4.58437 5.5125 4.64464L4.64464 5.51652C4.52009 5.64107 4.52009 5.84598 4.64464 5.97054L7.6942 8.98393L4.65268 12.0375C4.59241 12.0938 4.56027 12.1781 4.56027 12.2625C4.56027 12.3469 4.59241 12.4272 4.65268 12.4875L5.52054 13.3594C5.5808 13.4196 5.66518 13.4518 5.74554 13.4518C5.82589 13.4518 5.91027 13.4237 5.97054 13.3594L9 10.3179L12.0335 13.3554C12.0938 13.4156 12.1781 13.4478 12.2585 13.4478C12.3388 13.4478 12.4192 13.4196 12.4835 13.3554L13.3513 12.4835C13.4116 12.4272 13.4437 12.3429 13.4437 12.2585Z" fill="#C8C7CC"/>
</svg>
