<svg width="33" height="390" viewBox="0 0 33 390" fill="none" xmlns="http://www.w3.org/2000/svg">
<rect y="180" width="32.8808" height="30" fill="black"/>
<path fill-rule="evenodd" clip-rule="evenodd" d="M25.2087 193V200L28.4967 203V204H4.38416V203L7.67224 200V193C7.22088 189.053 10.2702 185.688 14.2484 185V184C14.3129 182.841 15.2347 182 16.4404 182C17.6462 182 18.568 182.841 18.6325 184V185C22.6106 185.688 25.66 189.053 25.2087 193ZM19.6957 205C19.6957 206.521 18.5702 207.64 16.4241 207.64C14.278 207.64 13.1524 206.521 13.1524 205H19.6957Z" fill="black"/>
<mask id="mask0_13_1064" style="mask-type:luminance" maskUnits="userSpaceOnUse" x="4" y="182" width="25" height="26">
<path fill-rule="evenodd" clip-rule="evenodd" d="M25.2087 193V200L28.4967 203V204H4.38416V203L7.67224 200V193C7.22088 189.053 10.2702 185.688 14.2484 185V184C14.3129 182.841 15.2347 182 16.4404 182C17.6462 182 18.568 182.841 18.6325 184V185C22.6106 185.688 25.66 189.053 25.2087 193ZM19.6957 205C19.6957 206.521 18.5702 207.64 16.4241 207.64C14.278 207.64 13.1524 206.521 13.1524 205H19.6957Z" fill="white"/>
</mask>
<g mask="url(#mask0_13_1064)">
<rect y="180" width="32.8808" height="30" fill="#C1C0C9"/>
</g>
<rect y="240" width="32.8808" height="30" fill="black"/>
<path fill-rule="evenodd" clip-rule="evenodd" d="M27.9487 249.971H22.7469C23.1201 249.739 23.4407 249.508 23.6643 249.301C24.9911 248.084 24.9911 246.104 23.6643 244.888C22.3754 243.703 20.1296 243.706 18.8423 244.888C18.1288 245.54 16.2382 248.197 16.4996 249.971H16.3812C16.641 248.197 14.7503 245.54 14.0385 244.888C12.7495 243.706 10.5038 243.706 9.21649 244.888C7.8914 246.104 7.8914 248.084 9.21485 249.301C9.44008 249.508 9.76067 249.739 10.1339 249.971H4.93213C4.02626 249.971 3.28809 250.645 3.28809 251.471V253.721C3.28809 254.135 3.65635 254.471 4.11011 254.471H14.7964V251.471H18.0844V254.471H28.7707C29.2245 254.471 29.5927 254.135 29.5927 253.721V251.471C29.5927 250.645 28.8562 249.971 27.9487 249.971ZM4.93213 255.971V264.971C4.93213 265.799 5.6703 266.471 6.57617 266.471H14.7964V255.971H4.93213ZM14.3952 249.971C14.6303 249.971 14.6994 249.922 14.6994 249.922C15.0824 249.56 13.9809 246.962 12.8728 245.945C12.5391 245.639 12.0969 245.471 11.6283 245.471C11.1581 245.471 10.7159 245.639 10.3821 245.945C9.69326 246.578 9.69326 247.61 10.3821 248.243C11.0907 248.894 13.2592 249.971 14.3952 249.971ZM18.4839 249.971C18.2505 249.971 18.1814 249.923 18.1814 249.922C17.7984 249.56 18.8999 246.962 20.008 245.945C20.6705 245.335 21.8296 245.332 22.4987 245.945C23.1892 246.578 23.1892 247.61 22.4987 248.243C21.7901 248.894 19.6216 249.971 18.4839 249.971ZM18.0844 266.471V255.971H27.9487V264.971C27.9487 265.799 27.2122 266.471 26.3046 266.471H18.0844Z" fill="black"/>
<mask id="mask1_13_1064" style="mask-type:luminance" maskUnits="userSpaceOnUse" x="3" y="244" width="27" height="23">
<path fill-rule="evenodd" clip-rule="evenodd" d="M27.9487 249.971H22.7469C23.1201 249.739 23.4407 249.508 23.6643 249.301C24.9911 248.084 24.9911 246.104 23.6643 244.888C22.3754 243.703 20.1296 243.706 18.8423 244.888C18.1288 245.54 16.2382 248.197 16.4996 249.971H16.3812C16.641 248.197 14.7503 245.54 14.0385 244.888C12.7495 243.706 10.5038 243.706 9.21649 244.888C7.8914 246.104 7.8914 248.084 9.21485 249.301C9.44008 249.508 9.76067 249.739 10.1339 249.971H4.93213C4.02626 249.971 3.28809 250.645 3.28809 251.471V253.721C3.28809 254.135 3.65635 254.471 4.11011 254.471H14.7964V251.471H18.0844V254.471H28.7707C29.2245 254.471 29.5927 254.135 29.5927 253.721V251.471C29.5927 250.645 28.8562 249.971 27.9487 249.971ZM4.93213 255.971V264.971C4.93213 265.799 5.6703 266.471 6.57617 266.471H14.7964V255.971H4.93213ZM14.3952 249.971C14.6303 249.971 14.6994 249.922 14.6994 249.922C15.0824 249.56 13.9809 246.962 12.8728 245.945C12.5391 245.639 12.0969 245.471 11.6283 245.471C11.1581 245.471 10.7159 245.639 10.3821 245.945C9.69326 246.578 9.69326 247.61 10.3821 248.243C11.0907 248.894 13.2592 249.971 14.3952 249.971ZM18.4839 249.971C18.2505 249.971 18.1814 249.923 18.1814 249.922C17.7984 249.56 18.8999 246.962 20.008 245.945C20.6705 245.335 21.8296 245.332 22.4987 245.945C23.1892 246.578 23.1892 247.61 22.4987 248.243C21.7901 248.894 19.6216 249.971 18.4839 249.971ZM18.0844 266.471V255.971H27.9487V264.971C27.9487 265.799 27.2122 266.471 26.3046 266.471H18.0844Z" fill="white"/>
</mask>
<g mask="url(#mask1_13_1064)">
<rect y="240" width="32.8808" height="30" fill="#C1C0C9"/>
</g>
<rect y="300" width="32.8808" height="30" fill="black"/>
<path fill-rule="evenodd" clip-rule="evenodd" d="M26.836 312.6L28.5405 312.888C29.1521 313.013 29.5883 313.507 29.5927 314.078V315.931C29.5835 316.499 29.1483 316.988 28.5405 317.112L26.836 317.4C26.2533 317.542 25.7742 317.92 25.5362 318.426C25.2981 318.931 25.3273 319.509 25.6155 319.992L26.594 321.24C26.9796 321.734 26.9126 322.411 26.4362 322.834L25.0157 324.12C24.5667 324.509 23.8853 324.568 23.3638 324.264L21.9959 323.371C21.4597 323.077 20.8022 323.033 20.2248 323.253C19.6474 323.473 19.219 323.93 19.0709 324.485L18.7447 326.04C18.6085 326.595 18.0733 326.992 17.4505 327H15.4198C14.797 326.992 14.2618 326.595 14.1256 326.04L13.8099 324.485C13.6542 323.953 13.2399 323.516 12.6857 323.299C12.1316 323.082 11.4989 323.108 10.969 323.371L9.6012 324.264C9.0619 324.61 8.32711 324.549 7.86509 324.12L6.44464 322.834C5.96824 322.411 5.90122 321.734 6.28681 321.24L7.26535 320.069C7.58759 319.58 7.63561 318.98 7.39469 318.453C7.15377 317.926 6.65263 317.535 6.04481 317.4L4.34027 317.112C3.72868 316.987 3.2925 316.493 3.28809 315.922V314.069C3.29735 313.501 3.73247 313.012 4.34027 312.888L6.04481 312.6C6.62749 312.458 7.10656 312.08 7.34464 311.574C7.58271 311.069 7.55349 310.491 7.26535 310.008L6.28681 308.76C5.90122 308.266 5.96824 307.589 6.44464 307.166L7.86509 305.88C8.32711 305.451 9.0619 305.39 9.6012 305.736L10.927 306.629C11.4602 306.907 12.1052 306.942 12.6708 306.724C13.2364 306.505 13.6578 306.058 13.8099 305.515L14.1256 303.96C14.2627 303.402 14.8036 303.004 15.4303 303H17.461C18.0838 303.008 18.619 303.405 18.7552 303.96L19.0709 305.515C19.2174 306.049 19.6083 306.5 20.1441 306.754C20.7232 306.961 21.3746 306.915 21.9118 306.629L23.2796 305.736C23.8189 305.39 24.5537 305.451 25.0157 305.88L26.4362 307.166C26.9126 307.589 26.9796 308.266 26.594 308.76L25.6155 309.931C25.2932 310.42 25.2452 311.02 25.4861 311.547C25.727 312.074 26.2282 312.465 26.836 312.6ZM16.4404 319.32C19.0554 319.32 21.1752 317.386 21.1752 315C21.1752 312.614 19.0554 310.68 16.4404 310.68C13.8254 310.68 11.7056 312.614 11.7056 315C11.7056 317.386 13.8254 319.32 16.4404 319.32Z" fill="#0E1D25"/>
<mask id="mask2_13_1064" style="mask-type:luminance" maskUnits="userSpaceOnUse" x="3" y="303" width="27" height="24">
<path fill-rule="evenodd" clip-rule="evenodd" d="M26.836 312.6L28.5405 312.888C29.1521 313.013 29.5883 313.507 29.5927 314.078V315.931C29.5835 316.499 29.1483 316.988 28.5405 317.112L26.836 317.4C26.2533 317.542 25.7742 317.92 25.5362 318.426C25.2981 318.931 25.3273 319.509 25.6155 319.992L26.594 321.24C26.9796 321.734 26.9126 322.411 26.4362 322.834L25.0157 324.12C24.5667 324.509 23.8853 324.568 23.3638 324.264L21.9959 323.371C21.4597 323.077 20.8022 323.033 20.2248 323.253C19.6474 323.473 19.219 323.93 19.0709 324.485L18.7447 326.04C18.6085 326.595 18.0733 326.992 17.4505 327H15.4198C14.797 326.992 14.2618 326.595 14.1256 326.04L13.8099 324.485C13.6542 323.953 13.2399 323.516 12.6857 323.299C12.1316 323.082 11.4989 323.108 10.969 323.371L9.6012 324.264C9.0619 324.61 8.32711 324.549 7.86509 324.12L6.44464 322.834C5.96824 322.411 5.90122 321.734 6.28681 321.24L7.26535 320.069C7.58759 319.58 7.63561 318.98 7.39469 318.453C7.15377 317.926 6.65263 317.535 6.04481 317.4L4.34027 317.112C3.72868 316.987 3.2925 316.493 3.28809 315.922V314.069C3.29735 313.501 3.73247 313.012 4.34027 312.888L6.04481 312.6C6.62749 312.458 7.10656 312.08 7.34464 311.574C7.58271 311.069 7.55349 310.491 7.26535 310.008L6.28681 308.76C5.90122 308.266 5.96824 307.589 6.44464 307.166L7.86509 305.88C8.32711 305.451 9.0619 305.39 9.6012 305.736L10.927 306.629C11.4602 306.907 12.1052 306.942 12.6708 306.724C13.2364 306.505 13.6578 306.058 13.8099 305.515L14.1256 303.96C14.2627 303.402 14.8036 303.004 15.4303 303H17.461C18.0838 303.008 18.619 303.405 18.7552 303.96L19.0709 305.515C19.2174 306.049 19.6083 306.5 20.1441 306.754C20.7232 306.961 21.3746 306.915 21.9118 306.629L23.2796 305.736C23.8189 305.39 24.5537 305.451 25.0157 305.88L26.4362 307.166C26.9126 307.589 26.9796 308.266 26.594 308.76L25.6155 309.931C25.2932 310.42 25.2452 311.02 25.4861 311.547C25.727 312.074 26.2282 312.465 26.836 312.6ZM16.4404 319.32C19.0554 319.32 21.1752 317.386 21.1752 315C21.1752 312.614 19.0554 310.68 16.4404 310.68C13.8254 310.68 11.7056 312.614 11.7056 315C11.7056 317.386 13.8254 319.32 16.4404 319.32Z" fill="white"/>
</mask>
<g mask="url(#mask2_13_1064)">
<rect y="300" width="32.8808" height="30" fill="#C1C0C9"/>
</g>
<rect y="360" width="32.8808" height="30" fill="black"/>
<path opacity="0.3" fill-rule="evenodd" clip-rule="evenodd" d="M10.3976 381.5C10.3976 380.782 9.81823 380.2 9.03807 380.2C8.25791 380.2 7.67671 380.782 7.67671 381.5V382.8C7.67671 385.672 10.0227 388 13.1433 388H21.9237C25.0444 388 27.4006 385.672 27.4006 382.8V367.2C27.4006 364.328 24.8709 362 21.7502 362H13.1433C10.0227 362 7.67671 364.328 7.67671 367.2V368.5C7.67671 369.218 8.24811 369.8 9.02826 369.8C9.80842 369.8 10.4409 369.218 10.4409 368.5V367.2C10.4409 365.764 11.583 364.483 13.1433 364.483L21.9237 364.533C23.4841 364.533 24.7061 365.764 24.7061 367.2V382.8C24.7061 384.236 23.4841 385.502 21.9237 385.502H13.1433C11.583 385.502 10.3976 384.236 10.3976 382.8V381.5ZM22.282 374.114C22.8277 374.623 22.8155 375.422 22.2455 375.919L17.771 379.819C17.1885 380.327 16.2441 380.327 15.6617 379.819C15.0792 379.312 15.0792 378.488 15.6617 377.981L18.2492 375.725H5.38408C4.83179 375.725 4.38408 375.278 4.38408 374.725V374.125C4.38408 373.573 4.83179 373.125 5.38408 373.125H16.9308L15.6617 372.019C15.0792 371.512 15.0792 370.688 15.6617 370.181C16.2441 369.673 17.1885 369.673 17.771 370.181L21.1494 373.125H21.2821C21.8305 373.125 22.2757 373.567 22.282 374.114Z" fill="black"/>
<mask id="mask3_13_1064" style="mask-type:luminance" maskUnits="userSpaceOnUse" x="4" y="362" width="24" height="26">
<path fill-rule="evenodd" clip-rule="evenodd" d="M10.3976 381.5C10.3976 380.782 9.81823 380.2 9.03807 380.2C8.25791 380.2 7.67671 380.782 7.67671 381.5V382.8C7.67671 385.672 10.0227 388 13.1433 388H21.9237C25.0444 388 27.4006 385.672 27.4006 382.8V367.2C27.4006 364.328 24.8709 362 21.7502 362H13.1433C10.0227 362 7.67671 364.328 7.67671 367.2V368.5C7.67671 369.218 8.24811 369.8 9.02826 369.8C9.80842 369.8 10.4409 369.218 10.4409 368.5V367.2C10.4409 365.764 11.583 364.483 13.1433 364.483L21.9237 364.533C23.4841 364.533 24.7061 365.764 24.7061 367.2V382.8C24.7061 384.236 23.4841 385.502 21.9237 385.502H13.1433C11.583 385.502 10.3976 384.236 10.3976 382.8V381.5ZM22.282 374.114C22.8277 374.623 22.8155 375.422 22.2455 375.919L17.771 379.819C17.1885 380.327 16.2441 380.327 15.6617 379.819C15.0792 379.312 15.0792 378.488 15.6617 377.981L18.2492 375.725H5.38408C4.83179 375.725 4.38408 375.278 4.38408 374.725V374.125C4.38408 373.573 4.83179 373.125 5.38408 373.125H16.9308L15.6617 372.019C15.0792 371.512 15.0792 370.688 15.6617 370.181C16.2441 369.673 17.1885 369.673 17.771 370.181L21.1494 373.125H21.2821C21.8305 373.125 22.2757 373.567 22.282 374.114Z" fill="white"/>
</mask>
<g mask="url(#mask3_13_1064)">
<rect y="360" width="32.8808" height="30" fill="#C1C0C9"/>
</g>
<rect y="120" width="32.8808" height="30" fill="black"/>
<path fill-rule="evenodd" clip-rule="evenodd" d="M6.27598 127.44C8.68054 124.749 12.326 123 16.4404 123C23.6927 123 29.5927 128.383 29.5927 135C29.5927 141.617 23.6927 147 16.4404 147C9.18806 147 3.28809 141.617 3.28809 135C3.28809 133.765 5.95926 133.648 6.01651 135C6.24242 140.379 10.542 144.501 16.4404 144.501C22.3388 144.501 26.8783 140.383 26.8783 135C26.8783 129.618 22.3404 125.451 16.4404 125.451C13.0022 125.451 9.95863 126.72 7.98578 129L9.85063 130.701C10.1879 131.009 9.9702 131.571 9.51363 131.571H3.48809C3.37763 131.571 3.28809 131.481 3.28809 131.371V125.847C3.28809 125.412 3.80411 125.185 4.12509 125.478L6.27598 127.44ZM16.4409 130C16.4409 129.456 16.4409 129.004 17.5342 129.004C18.6274 129.004 18.6303 129.452 18.6303 130V136.026C18.6303 137.008 17.5258 138.002 16.4152 138.002H12.0568C12.0568 138.002 10.9635 137.964 10.9635 136.986C10.9635 136.008 12.0568 136.026 12.0568 136.026H16.4842L16.4409 130Z" fill="black"/>
<mask id="mask4_13_1064" style="mask-type:luminance" maskUnits="userSpaceOnUse" x="3" y="123" width="27" height="24">
<path fill-rule="evenodd" clip-rule="evenodd" d="M6.27598 127.44C8.68054 124.749 12.326 123 16.4404 123C23.6927 123 29.5927 128.383 29.5927 135C29.5927 141.617 23.6927 147 16.4404 147C9.18806 147 3.28809 141.617 3.28809 135C3.28809 133.765 5.95926 133.648 6.01651 135C6.24242 140.379 10.542 144.501 16.4404 144.501C22.3388 144.501 26.8783 140.383 26.8783 135C26.8783 129.618 22.3404 125.451 16.4404 125.451C13.0022 125.451 9.95863 126.72 7.98578 129L9.85063 130.701C10.1879 131.009 9.9702 131.571 9.51363 131.571H3.48809C3.37763 131.571 3.28809 131.481 3.28809 131.371V125.847C3.28809 125.412 3.80411 125.185 4.12509 125.478L6.27598 127.44ZM16.4409 130C16.4409 129.456 16.4409 129.004 17.5342 129.004C18.6274 129.004 18.6303 129.452 18.6303 130V136.026C18.6303 137.008 17.5258 138.002 16.4152 138.002H12.0568C12.0568 138.002 10.9635 137.964 10.9635 136.986C10.9635 136.008 12.0568 136.026 12.0568 136.026H16.4842L16.4409 130Z" fill="white"/>
</mask>
<g mask="url(#mask4_13_1064)">
<rect y="120" width="32.8808" height="30" fill="#C1C0C9"/>
</g>
<rect y="60" width="32.8808" height="30" fill="black"/>
<path fill-rule="evenodd" clip-rule="evenodd" d="M4.38416 68C4.38416 65.7909 6.17502 64 8.38416 64H22.0855C24.2946 64 26.0855 65.7909 26.0855 68V68.3801C27.2966 68.3801 28.4967 69.4817 28.4967 70.5701V84.03C28.4967 85.1184 27.5158 86 26.3047 86H7.67224C5.85612 86 4.38416 84.6771 4.38416 83.045V68.3801V68ZM21.9206 77.0407C21.9206 78.1407 22.9015 79.0317 24.1126 79.0317C25.3237 79.0317 26.3047 78.1407 26.3047 77.0407C26.3047 75.9407 25.3237 75.0498 24.1126 75.0498C22.9015 75.0498 21.9206 75.9407 21.9206 77.0407ZM8.29541 66.19C7.46699 66.19 6.79541 66.8616 6.79541 67.69V68.3801H23.6742V67.69C23.6742 66.8616 23.0026 66.19 22.1742 66.19H8.29541Z" fill="black"/>
<mask id="mask5_13_1064" style="mask-type:luminance" maskUnits="userSpaceOnUse" x="4" y="64" width="25" height="22">
<path fill-rule="evenodd" clip-rule="evenodd" d="M4.38416 68C4.38416 65.7909 6.17502 64 8.38416 64H22.0855C24.2946 64 26.0855 65.7909 26.0855 68V68.3801C27.2966 68.3801 28.4967 69.4817 28.4967 70.5701V84.03C28.4967 85.1184 27.5158 86 26.3047 86H7.67224C5.85612 86 4.38416 84.6771 4.38416 83.045V68.3801V68ZM21.9206 77.0407C21.9206 78.1407 22.9015 79.0317 24.1126 79.0317C25.3237 79.0317 26.3047 78.1407 26.3047 77.0407C26.3047 75.9407 25.3237 75.0498 24.1126 75.0498C22.9015 75.0498 21.9206 75.9407 21.9206 77.0407ZM8.29541 66.19C7.46699 66.19 6.79541 66.8616 6.79541 67.69V68.3801H23.6742V67.69C23.6742 66.8616 23.0026 66.19 22.1742 66.19H8.29541Z" fill="white"/>
</mask>
<g mask="url(#mask5_13_1064)">
<rect y="60" width="32.8808" height="30" fill="#C1C0C9"/>
</g>
<rect width="32.8808" height="30" fill="black"/>
<path fill-rule="evenodd" clip-rule="evenodd" d="M17.8757 3.41909L27.4882 11.8394C27.9708 12.2638 28.1227 12.9131 27.8721 13.4803C27.6215 14.0475 27.0186 14.4191 26.3483 14.4195H25.5043V24.4999C25.5043 25.8807 24.2775 27 22.7641 27H10.7074C9.98063 27 9.28365 26.7366 8.76977 26.2677C8.25589 25.7989 7.96719 25.163 7.96719 24.4999V14.4195H7.11774C6.44844 14.4171 5.84756 14.0447 5.59836 13.478C5.34917 12.9112 5.50141 12.2632 5.98331 11.8394L15.5958 3.41909C16.2324 2.8603 17.2391 2.8603 17.8757 3.41909ZM14.5436 18.4997C14.5436 19.6043 15.5251 20.4997 16.7357 20.4997C17.9464 20.4997 18.9279 19.6043 18.9279 18.4997C18.9279 17.3951 17.9464 16.4996 16.7357 16.4996C15.5251 16.4996 14.5436 17.3951 14.5436 18.4997Z" fill="#D3D4ED"/>
<mask id="mask6_13_1064" style="mask-type:luminance" maskUnits="userSpaceOnUse" x="5" y="3" width="23" height="24">
<path fill-rule="evenodd" clip-rule="evenodd" d="M17.8757 3.41909L27.4882 11.8394C27.9708 12.2638 28.1227 12.9131 27.8721 13.4803C27.6215 14.0475 27.0186 14.4191 26.3483 14.4195H25.5043V24.4999C25.5043 25.8807 24.2775 27 22.7641 27H10.7074C9.98063 27 9.28365 26.7366 8.76977 26.2677C8.25589 25.7989 7.96719 25.163 7.96719 24.4999V14.4195H7.11774C6.44844 14.4171 5.84756 14.0447 5.59836 13.478C5.34917 12.9112 5.50141 12.2632 5.98331 11.8394L15.5958 3.41909C16.2324 2.8603 17.2391 2.8603 17.8757 3.41909ZM14.5436 18.4997C14.5436 19.6043 15.5251 20.4997 16.7357 20.4997C17.9464 20.4997 18.9279 19.6043 18.9279 18.4997C18.9279 17.3951 17.9464 16.4996 16.7357 16.4996C15.5251 16.4996 14.5436 17.3951 14.5436 18.4997Z" fill="white"/>
</mask>
<g mask="url(#mask6_13_1064)">
<rect width="32.8808" height="30" fill="#C1C0C9"/>
</g>
</svg>
